<?xml version="1.0" encoding="utf-8"?>
<!-- Generator: Adobe Illustrator 22.0.1, SVG Export Plug-In . SVG Version: 6.00 Build 0)  -->
<svg version="1.1" id="Layer_1" xmlns="http://www.w3.org/2000/svg" xmlns:xlink="http://www.w3.org/1999/xlink" x="0px" y="0px"
	 viewBox="0 0 400 400" style="enable-background:new 0 0 400 400;" xml:space="preserve">
<style type="text/css">
	.st0{fill:#EC2F35;}
</style>
<g>
	<path class="st0" d="M322.3,40.9c-1.5-1-3.6-0.6-4.6,0.9c-1,1.5-0.6,3.6,0.9,4.6c37.4,25.6,59.8,67.9,59.8,113.2
		c0,75.6-61.5,137.1-137.1,137.1c-27.3,0-52.6-8.1-74-21.9c-2.4-1.6-4.7-3.2-7-4.9l-8.1,2.3l-4.5,1.3l-20.6,5.8l5.3-20.8l1.1-4.2
		l2-7.8c-1.8-2.2-3.4-4.5-5.1-6.8c-16.3-22.6-26.1-50.2-26.1-80.1c0-75.6,61.5-137.1,137.1-137.1c20.4,0,40.1,4.4,58.4,13
		c1.7,0.8,3.6,0.1,4.4-1.6c0.8-1.6,0.1-3.6-1.6-4.4c-19.2-9.1-39.8-13.7-61.3-13.7C162,15.8,97.6,80.3,97.6,159.6
		c0,33.3,11.4,64,30.6,88.4l-2.3,8.8l-8.1,31.9l31.7-8.9l9.4-2.6c23.4,16.4,51.8,26.1,82.5,26.1c79.2,0,143.7-64.5,143.7-143.7
		C385,112.1,361.6,67.7,322.3,40.9z"/>
	<path class="st0" d="M157,308.3c-5.8-5.8-15.3-5.8-21.1,0l-12,12l-45.6-45.6l12-12c2.8-2.8,4.4-6.6,4.4-10.5c0-4-1.5-7.7-4.4-10.5
		l-22.8-22.8c-5.6-5.6-15.5-5.6-21.1,0l-12,12l-0.2-0.2l-6.1,6.1c-7.9,7.9-12.3,18.5-12.3,29.7c0,11.2,4.4,21.8,12.3,29.7l74.6,74.6
		c7.9,7.9,18.5,12.3,29.7,12.3s21.8-4.4,29.7-12.3l1.5-1.5l0,0l16.7-16.7c5.8-5.8,5.8-15.3,0-21.1L157,308.3z M51.2,223.6
		c3.1-3.1,8.6-3.1,11.7,0l22.8,22.8c1.6,1.6,2.4,3.7,2.4,5.9c0,2.2-0.9,4.3-2.4,5.9l-12,12l-34.5-34.5L51.2,223.6z M159,364.7
		l-1.5,1.5c-6.7,6.7-15.6,10.4-25,10.4s-18.3-3.7-25-10.4l-74.6-74.6c-6.7-6.7-10.4-15.6-10.4-25s3.7-18.3,10.4-25l1.5-1.5
		l39.3,39.3l0,0l45.6,45.6l0,0l10.5,10.5L159,364.7z M175.7,348.1l-12,12l-26.9-26.9l-8.3-8.3l12-12c3.2-3.2,8.5-3.2,11.7,0
		l23.4,23.4C179,339.6,179,344.9,175.7,348.1z"/>
	<path class="st0" d="M245,185.6c19,0,34.5-15.5,34.5-34.5V96.3c0-19-15.5-34.5-34.5-34.5h-7.2c-19,0-34.5,15.5-34.5,34.5v54.8
		c0,19,15.5,34.5,34.5,34.5H245z M209.9,151.1V96.3c0-15.4,12.5-27.9,27.9-27.9h7.2c15.4,0,27.9,12.5,27.9,27.9v54.8
		c0,15.4-12.5,27.9-27.9,27.9h-7.2C222.4,179,209.9,166.5,209.9,151.1z"/>
	<path class="st0" d="M303.3,148.8v-3.1h-6.6v3.1c0,29.6-24.1,53.7-53.7,53.7h-3.1c-29.6,0-53.7-24.1-53.7-53.7v-3.1h-6.6v3.1
		c0,32.7,26.1,59.3,58.6,60.3v33.3h-22.2v6.6h51v-6.6h-22.2v-33.3C277.1,208.1,303.3,181.5,303.3,148.8z"/>
</g>
</svg>
