<?xml version="1.0" encoding="utf-8"?>
<!-- Generator: Adobe Illustrator 22.0.1, SVG Export Plug-In . SVG Version: 6.00 Build 0)  -->
<svg version="1.1" id="Layer_1" xmlns="http://www.w3.org/2000/svg" xmlns:xlink="http://www.w3.org/1999/xlink" x="0px" y="0px"
	 viewBox="0 0 300 300" style="enable-background:new 0 0 300 300;" xml:space="preserve">
<style type="text/css">
	.st0{fill:#EC2F35;}
</style>
<g>
	<path class="st0" d="M254.8,115.9c-0.7-56.8-47-102.6-104-102.6c-57,0-103.2,45.8-104,102.6C24,115.9,5.5,134.4,5.5,157.2v6.4
		c0,22.9,18.5,41.4,41.4,41.4h7.9c1,4.5,15.4,63.6,79.8,64.2c1.1,9.4,9,16.7,18.7,16.7c10.4,0,18.9-8.5,18.9-18.9
		c0-10.4-8.5-18.9-18.9-18.9c-9.7,0-17.5,7.3-18.7,16.6c-60.8-0.5-73.8-54-75.1-59.7h16.3v-84.8v-4.5h-1.7H51.2
		c0.7-54.3,45.1-98.2,99.5-98.2s98.8,43.9,99.5,98.2h-22.5h-2.6v4.5v84.8h28.9c22.9,0,41.4-18.5,41.4-41.4v-6.4
		C295.5,134.6,277.3,116.2,254.8,115.9z M153.2,252.6c8,0,14.4,6.5,14.4,14.4c0,8-6.5,14.4-14.4,14.4s-14.4-6.5-14.4-14.4
		C138.8,259.1,145.3,252.6,153.2,252.6z M71.3,120.3v80.3H46.9C26.5,200.6,10,184,10,163.6v-6.4c0-20.4,16.6-36.9,36.9-36.9H71.3z
		 M291,163.6c0,20.4-16.6,36.9-36.9,36.9h-24.4v-80.3h24.4c20.4,0,36.9,16.6,36.9,36.9V163.6z"/>
	<path class="st0" d="M102.4,128.1l-3.3,3.2v2.6h19.9v-3.5h-14v-0.1l2.5-2.3c6.6-6.3,10.8-11,10.8-16.8c0-4.5-2.8-9.1-9.6-9.1
		c-3.6,0-6.7,1.4-8.8,3.2l1.3,3c1.4-1.2,3.8-2.6,6.6-2.6c4.7,0,6.2,2.9,6.2,6.1C114.1,116.5,110.4,120.5,102.4,128.1z"/>
	<path class="st0" d="M139.6,133.9v-8.6h4.4v-3.3h-4.4v-19.4h-4.6l-13.9,19.9v2.7h14.5v8.6H139.6z M125.4,122.1L125.4,122.1
		l7.6-10.7c0.9-1.4,1.6-2.8,2.6-4.6h0.1c-0.1,1.6-0.1,3.3-0.1,4.9v10.4H125.4z"/>
	<path class="st0" d="M157.9,133.9l3.4-5.2c0.9-1.4,1.7-2.6,2.5-4h0.1c0.8,1.4,1.6,2.7,2.5,4l3.5,5.2h4.8l-8.1-12l7.9-11.2h-4.6
		l-3.2,4.9c-0.8,1.3-1.6,2.5-2.4,3.8H164c-0.8-1.3-1.5-2.5-2.4-3.7l-3.3-5h-4.7l7.9,11.4l-8.3,11.9H157.9z"/>
	<polygon class="st0" points="185.6,106.2 200.9,106.2 200.9,106.3 187.3,133.9 191.7,133.9 205.3,105.5 205.3,102.7 185.6,102.7 	
		"/>
</g>
</svg>
