<?xml version="1.0" encoding="utf-8"?>
<!-- Generator: Adobe Illustrator 22.0.1, SVG Export Plug-In . SVG Version: 6.00 Build 0)  -->
<svg version="1.1" id="Layer_1" xmlns="http://www.w3.org/2000/svg" xmlns:xlink="http://www.w3.org/1999/xlink" x="0px" y="0px"
	 viewBox="0 0 500 500" style="enable-background:new 0 0 500 500;" xml:space="preserve">
<style type="text/css">
	.st0{fill:#EC2F35;}
</style>
<path class="st0" d="M482.4,101.3c-33.6-52-103.3-67.1-155.4-33.7c-25,15.8-42.4,40.4-49.1,69.2l-31.1,109.7l-18.5-4l-90.4-14
	l-0.7-0.2c-29-6.4-60-0.8-85.1,15.4c-25,15.9-43,41.7-49.4,70.7c-6.5,28.8-1,59.5,15,84.3c21.6,33.3,57.9,51.4,94.9,51.4
	c21.1,0,42.4-5.9,61.4-18.2c24.5-15.9,41.7-40.3,48.4-68.7l31-109.8l18.5,4.1l90.6,14.3l0.6,0.1c60.6,13,120.8-25.7,134.3-86.1
	C503.8,157,498.4,126.1,482.4,101.3z M285.7,139.2c6.2-27.2,22.6-50.4,46.3-65.3c23.6-14.9,51.7-19.7,78.9-13.5
	c26,5.9,48.3,21.2,63.3,43.1l1.4,2.2c15,23.6,19.8,51.7,13.7,79c-6.1,27.3-22.5,50.6-46.2,65.5c-23.5,14.9-51.5,19.8-78.8,13.7
	l-109-17.2L285.7,139.2z M244.6,254.4L214.4,361c-12.8,56-68.7,91.1-124.7,78.4c-27.1-6.2-50.2-22.6-65-46.1
	c-14.8-23.6-19.5-51.5-13.3-78.6c11-48.2,54-81,101.6-81c7.6,0,15.4,0.8,23.1,2.6l108.8,16.9l-0.3,1.2L244.6,254.4z"/>
</svg>
