<?xml version="1.0" encoding="utf-8"?>
<!-- Generator: Adobe Illustrator 22.0.1, SVG Export Plug-In . SVG Version: 6.00 Build 0)  -->
<svg version="1.1" id="Layer_1" xmlns="http://www.w3.org/2000/svg" xmlns:xlink="http://www.w3.org/1999/xlink" x="0px" y="0px"
	 viewBox="0 0 478.5 478.5" style="enable-background:new 0 0 478.5 478.5;" xml:space="preserve">
<style type="text/css">
	.st0{fill:#EC2F35;}
</style>
<g>
	<path class="st0" d="M401.1,201.8v261h-26.5V262.2h-68.9v201.2h-28.5V327.5H209v135.8h-26.5v-84.9h-68.4v84.9H29.8
		c-7,0-13-5.5-13-13V27.6c0-7,5.5-13,13-13h242.1V86c0,10,8,17.5,17.5,17.5h71.9v121.3h7.5V97.4L278.3,7.1H29.8
		c-11,0-20.5,9-20.5,20.5v422.8c0,11,9,20.5,20.5,20.5h84.4H183h26.5h68.9h28.5h68.9h26.5h34.4h32.9v-269H401.1z M279.3,86V18.6
		l77.4,77.4h-66.9C283.8,95.9,279.3,91.5,279.3,86z M121.6,462.8v-77.4H175v77.4H121.6z M216.4,462.8V335h53.4v128.3h-53.4V462.8z
		 M313.3,462.8V269.6h53.9v193.7h-53.9V462.8z M462,462.8h-27h-27V209.3H462V462.8z"/>
	<rect x="58.7" y="280.1" class="st0" width="184.7" height="7.5"/>
	<rect x="58.7" y="325.5" class="st0" width="70.9" height="7.5"/>
	<path class="st0" d="M244.9,165.8c0-60.4-49.4-109.8-109.8-109.8h-4v29.4c-39.9,4-70.9,37.4-70.9,77.9c0,42.9,34.9,78.4,78.4,78.4
		c41.4,0,74.9-31.4,77.9-71.9h28.5V165.8z M139.1,233.7c-38.9,0-70.9-31.9-70.9-70.9c0-36.4,27.5-66.4,63.4-70.4v76.4h77.9
		C206,205.8,176,233.7,139.1,233.7z M139.1,161.8V63.5c53.4,2,96.3,44.9,98.3,98.3H139.1z"/>
</g>
</svg>
