<?xml version="1.0" encoding="utf-8"?>
<!-- Generator: Adobe Illustrator 22.0.1, SVG Export Plug-In . SVG Version: 6.00 Build 0)  -->
<svg version="1.1" id="Layer_1" xmlns="http://www.w3.org/2000/svg" xmlns:xlink="http://www.w3.org/1999/xlink" x="0px" y="0px"
	 viewBox="0 0 169.4 169.4" style="enable-background:new 0 0 169.4 169.4;" xml:space="preserve">
<style type="text/css">
	.st0{fill:#EC2F35;}
</style>
<path class="st0" d="M84.7,169.4h48.8c0.3,0,0.5-0.1,0.8-0.2l16.9-11.3H168c0.8,0,1.4-0.6,1.4-1.4v-51.7c0-0.8-0.6-1.4-1.4-1.4h-17
	L134.6,98l-5.4-13.5v-9.8c0-5.8-4.4-10.7-10.2-11.3l-1.3-0.1v-1.3c0-0.2,0-0.4,0-0.6c0-0.2,0-0.4,0-0.6V18.6c0-0.6-0.4-1.1-1-1.3
	L59.2,0.1C59,0,58.7,0,58.4,0.1L1,17.3c-0.6,0.2-1,0.7-1,1.3v42.1c0,0.9,0,1.7,0.1,2.6c0,0.4,0,0.9,0.1,1.3c0.1,2.1,0.2,4,0.3,5.7
	l0.1,0.9c3.5,36.2,25,67.5,57.6,83.7c0.4,0.2,0.8,0.2,1.2,0c4.2-2.1,8.3-4.5,12.2-7.2l1.2-0.8l0.9,1.2c0.8,1.1,1.8,2,2.9,2.7
	l1.5,0.9L77,153c-2.5,3-3,7.1-1.4,10.6C77.3,167.1,80.8,169.4,84.7,169.4 M152.1,106.2h14.5v49h-14.5V106.2z M2.7,19.6L58.8,2.8
	l56.1,16.8v9.4l-14.5,4.3v-3.3c0-0.6-0.4-1.2-1-1.3L59.2,17.3c-0.3-0.1-0.6-0.1-0.8,0L18.2,31.7c-0.5,0.2-0.9,0.7-0.9,1.3v25.4
	L2.7,62.7V19.6z M107.2,87.3l4.2,10.4H89.9l1.2-2.2c6-10.7,9.2-22.8,9.2-35.1l0-1.1l14.5-4.3v5.7c0,0.4,0,0.9,0,1.3l0,1.6l-1,0.3
	c-4.5,1.6-7.6,5.9-7.6,10.7v7.8C106.3,84.1,106.6,85.7,107.2,87.3 M97.7,37.1v8.6L20.6,68.9l-0.2-1.8c-0.2-1.8-0.3-3.7-0.3-5.5
	l0-1.1L97.7,37.1z M20,57.6V33.9l38.9-13.9l38.8,11.1v3.1L20,57.6z M97.7,48.6v8.6L22.8,79.7l-0.4-1.5c-0.5-1.9-0.9-3.6-1.2-5.3
	L21,71.6L97.7,48.6z M97.7,60.1l-0.1,2.1c-0.4,12.3-4,24.3-10.5,34.8l-0.4,0.7H76.1c-5.5,0-10,4.5-10,10c0,2.6,1,5,2.7,6.8l1.2,1.2
	l-2.2,1.6c-0.8,0.6-1.6,1.2-2.5,1.7l-6.5,4.2l-6.5-4.2c-12.9-8.3-22.9-20.8-28.2-35.3l-0.5-1.5L97.7,60.1z M100.4,56.4v-8.6
	l14.5-4.3v8.6L100.4,56.4z M100.4,44.9v-8.6l14.5-4.3v8.6L100.4,44.9z M3.4,71.4c-0.1-1.4-0.3-2.9-0.4-4.7l-0.1-1.2l14.3-4.3
	l0.1,1.9c0.1,1.9,0.2,3.6,0.4,5.3l0.1,1.2L3.6,74L3.4,71.4z M5.3,83.3c-0.3-1.5-0.7-3-1-4.8L4,76.7l14.3-4.3l0.3,1.6
	c0.3,1.6,0.7,3.3,1.2,5l0.4,1.4L5.7,84.9L5.3,83.3z M71.8,142.2c0,0.3,0,0.7,0.1,1l0.1,0.9l-0.7,0.5c-3.7,2.6-7.7,5.1-11.7,7.2
	l-0.7,0.4l-0.7-0.4C33.1,138.9,14.4,116,6.7,89l-0.4-1.4L21,83.1l0.5,1.3c5.4,15.2,15.8,28.3,29.4,37l7.2,4.7c0.5,0.3,1,0.3,1.5,0
	l10.3-6.6l-0.7,3.5c-0.9,4.1,1,8.4,4.6,10.5l1.5,0.9l-1.1,1.4C72.7,137.5,71.8,139.8,71.8,142.2 M84.1,152.2
	c0.7-0.1,1.3-0.7,1.2-1.5c0-0.7-0.6-1.3-1.4-1.3h0h-2.2c-4,0-7.2-3.3-7.2-7.2c0-4,3.3-7.2,7.2-7.2c0.8,0,1.4-0.6,1.4-1.4
	c0-0.8-0.6-1.4-1.4-1.4h-2.9c-4,0-7.2-3.3-7.2-7.2c0-4,3.3-7.2,7.2-7.2c0.8,0,1.4-0.6,1.4-1.4c0-0.8-0.6-1.4-1.4-1.4h-2.9
	c-4,0-7.2-3.3-7.2-7.2c0-4,3.3-7.2,7.2-7.2h37.3h0c0.5,0,0.9-0.2,1.1-0.6c0.3-0.4,0.3-0.9,0.1-1.3l-4.9-12.3
	c-0.5-1.2-0.7-2.5-0.7-3.8v-7.8c0-4.8,3.9-8.7,8.7-8.7s8.7,3.9,8.7,8.7v10.1c0,0.2,0,0.4,0.1,0.5l5.7,14.4c0.2,0.4,0.5,0.7,0.8,0.8
	l16.3,5.4v50l-16.3,10.9H84.7c-4,0-7.2-3.3-7.2-7.2C77.4,155.6,80.4,152.5,84.1,152.2"/>
<path class="st0" d="M147.9,39.5c0.6,0.6,1.2,1.2,1.8,1.9l2.1-1.8c-0.6-0.7-1.3-1.4-2-2.1L147.9,39.5z"/>
<path class="st0" d="M163.6,72.2c0-0.4,0-0.8,0-1.2c0-0.6,0-1.2,0-1.7l-2.7,0.2c0,0.5,0,1,0,1.6c0,0.3,0,0.7,0,1L163.6,72.2z"/>
<path class="st0" d="M141.3,34.1l1.6-2.2c-0.8-0.5-1.6-1.1-2.5-1.6l-1.3,2.4C139.8,33.1,140.5,33.6,141.3,34.1"/>
<path class="st0" d="M159.3,83.1l2.6,0.8c0.3-0.9,0.5-1.9,0.7-2.8l-2.7-0.5C159.7,81.4,159.5,82.2,159.3,83.1"/>
<path class="st0" d="M131.3,29l1-2.6c-0.9-0.3-1.8-0.6-2.8-0.9l-0.7,2.7C129.7,28.5,130.5,28.8,131.3,29"/>
<path class="st0" d="M158.4,49.4c-0.4-0.9-0.9-1.7-1.4-2.5l-2.3,1.5c0.4,0.7,0.9,1.5,1.2,2.2L158.4,49.4z"/>
<path class="st0" d="M162.4,60.5c-0.2-1-0.5-1.9-0.7-2.8l-2.6,0.9c0.2,0.8,0.5,1.7,0.6,2.5L162.4,60.5z"/>
<path class="st0" d="M129.7,49.5l-1,2.6c6.9,2.9,11.5,9.3,12.1,16.8h2.8C143,60.3,137.7,52.8,129.7,49.5"/>
</svg>
