<?xml version="1.0" encoding="utf-8"?>
<!-- Generator: Adobe Illustrator 22.0.1, SVG Export Plug-In . SVG Version: 6.00 Build 0)  -->
<svg version="1.1" id="Layer_1" xmlns="http://www.w3.org/2000/svg" xmlns:xlink="http://www.w3.org/1999/xlink" x="0px" y="0px"
	 viewBox="0 0 432.8 420.2" style="enable-background:new 0 0 432.8 420.2;" xml:space="preserve">
<style type="text/css">
	.st0{fill:#EC2F35;}
</style>
<g>
	<path class="st0" d="M312.4,312.3L312.4,312.3l0.7,107.5h107.5v0h0V312.3L312.4,312.3L312.4,312.3z M318.4,317.2h97.3v97.3h-97.3
		V317.2z"/>
	<path class="st0" d="M233.4,344.5l18.1,14.2l-8.8,0c-83-0.3-140.4-0.5-170.8-0.5c-5.6,0-10.5-0.5-14.8-1.7
		c-31.3-8-52.6-36.9-49.5-67.4c3.5-34.9,29.2-59.3,64-60.7c9.3-0.4,18.5-0.3,27.4-0.2l2.3,0c3.2,0,6.5,0.1,9.7,0.1l37.6,0v30.5
		h107.6l0.2-27v-80.4H148v69.8h-15.9c-5.2,0-10.3,0-15.3,0l-0.3,0c-12.3,0-24-0.1-35.8,0.1c-8.9,0.1-15.5,0.6-21.5,1.6
		c-18.8,3.1-35.9,14.6-46.9,31.6c-11.1,17.2-14.6,37.7-9.6,56.4c9.3,34.8,37,54.8,76,54.8l175.5,0l-20.7,15.7v8.2
		c12-9,28.4-21.4,34.5-26.3c-6.1-4.9-22.2-17.4-34.5-26.9V344.5z M153.9,156.6h97.3V254h-97.3V156.6z"/>
	<path class="st0" d="M420.5,103.5c-11-17-28.1-28.5-46.9-31.6c-6-1-12.7-1.5-21.5-1.6c-11.8-0.2-193.5-0.2-205.8-0.1l-0.3,0
		c-5,0-10.2,0-15.3,0h-15.9V0.4H6.4v80.4l0.2,27h107.6V77.2l37.6,0c3.2,0,6.5,0,9.7-0.1l2.3,0c8.9-0.1,188.2-0.2,197.4,0.2
		c34.7,1.4,60.4,25.8,64,60.7c3.1,30.4-18.2,59.4-49.5,67.4c-4.4,1.1-9.2,1.7-14.8,1.7c-30.4,0,32.1,0.2-50.8,0.5l-8.8,0l18.1-14.2
		v-8.2c-12.3,9.5-28.4,22-34.5,26.9c6.2,4.9,22.6,17.3,34.5,26.3v-8.2l-20.7-15.7l55.5,0c39,0,66.7-20,76-54.8
		C435.1,141.2,431.6,120.6,420.5,103.5z M108.8,102.9H11.5V5.6h97.3V102.9z"/>
</g>
</svg>
