<?xml version="1.0" encoding="utf-8"?>
<!-- Generator: Adobe Illustrator 22.0.1, SVG Export Plug-In . SVG Version: 6.00 Build 0)  -->
<svg version="1.1" id="Layer_1" xmlns="http://www.w3.org/2000/svg" xmlns:xlink="http://www.w3.org/1999/xlink" x="0px" y="0px"
	 viewBox="0 0 384.3 384.3" style="enable-background:new 0 0 384.3 384.3;" xml:space="preserve">
<style type="text/css">
	.st0{fill:#EC2F35;}
</style>
<path class="st0" d="M135.8,350.6h79.4c27.3,0,49.5-22.2,49.5-49.5v-52.9c0-1.9-1.5-3.4-3.4-3.4c-1.9,0-3.4,1.5-3.4,3.4v52.9
	c0,23.5-19.1,42.6-42.6,42.6h-82.8c-1.9,0-3.4,1.5-3.4,3.4l0,25.5l-26.4-26.9c-0.5-1.2-1.8-2.1-3.2-2.1H49.5
	c-23.5,0-42.6-19.1-42.6-42.6V183c0-23.5,19.1-42.6,42.6-42.6H127c1.9,0,3.4-1.5,3.4-3.4c0-1.9-1.5-3.4-3.4-3.4H49.5
	C22.2,133.5,0,155.7,0,183v118.1c0,27.3,22.2,49.5,49.5,49.5h47.7l32.8,32.8c1,1,2.4,1.3,3.8,0.7c1.2-0.5,2.1-1.8,2.1-3.1
	L135.8,350.6z"/>
<path class="st0" d="M342.9,192l1.6-1.3c11.7-9.5,21.4-21.5,28.2-34.8c7.7-15.2,11.6-31.5,11.6-48.7C384.3,48.1,336.2,0,277.1,0
	h-19.4c-59.1,0-107.3,48.1-107.3,107.3s48.1,107.3,107.3,107.3h19.4c9.3,0,18.4-1.2,27.2-3.5l2.4-0.6l30.4,30.4c1,1,2.5,1.3,3.7,0.8
	c1.3-0.5,2.1-1.8,2.1-3.2V192z M337.4,187.5c-0.9,0.6-1.4,1.7-1.4,2.7v39.9l-26-26c-0.9-0.9-2.1-1.3-3.5-0.8
	c-9.5,2.9-19.4,4.4-29.5,4.4h-19.4c-55.4,0-100.4-45-100.4-100.4c0-55.4,45-100.4,100.4-100.4h19.4c55.4,0,100.4,45,100.4,100.4
	C377.5,139.1,362.9,168.4,337.4,187.5"/>
<path class="st0" d="M206.7,244.7c1.9,0,3.4-1.5,3.4-3.4c0-1.9-1.5-3.4-3.4-3.4H44.9c-1.9,0-3.4,1.5-3.4,3.4c0,1.9,1.5,3.4,3.4,3.4
	H206.7z"/>
<path class="st0" d="M209.1,286.7c0.7-0.7,1-1.5,1-2.4c0-0.9-0.4-1.8-1-2.4l0,0c-0.6-0.6-1.5-1-2.4-1c-0.9,0-1.8,0.4-2.4,1
	c-0.6,0.6-1,1.5-1,2.4c0,0.9,0.4,1.8,1,2.4C205.6,287.9,207.9,287.9,209.1,286.7"/>
<path class="st0" d="M176.6,287.7c1.9,0,3.4-1.5,3.4-3.4c0-1.9-1.5-3.4-3.4-3.4H44.9c-1.9,0-3.4,1.5-3.4,3.4c0,1.9,1.5,3.4,3.4,3.4
	H176.6z"/>
<path class="st0" d="M156.9,201.7c1.9,0,3.4-1.5,3.4-3.4c0-1.9-1.5-3.4-3.4-3.4h-112c-1.9,0-3.4,1.5-3.4,3.4c0,1.9,1.5,3.4,3.4,3.4
	H156.9z"/>
</svg>
