<?xml version="1.0" encoding="utf-8"?>
<!-- Generator: Adobe Illustrator 22.0.1, SVG Export Plug-In . SVG Version: 6.00 Build 0)  -->
<svg version="1.1" id="Layer_1" xmlns="http://www.w3.org/2000/svg" xmlns:xlink="http://www.w3.org/1999/xlink" x="0px" y="0px"
	 viewBox="0 0 392.3 392.2" style="enable-background:new 0 0 392.3 392.2;" xml:space="preserve">
<style type="text/css">
	.st0{fill:#EC2F35;}
</style>
<path class="st0" d="M0.8,147.6l-0.2,0.2c-0.1,0.1-0.2,0.2-0.2,0.3c-0.1,0.1-0.1,0.3-0.1,0.4l-0.1,0.3c-0.1,0.2-0.1,0.4-0.1,0.5
	c0,0.2,0,0.4-0.1,0.5v225.9c0.1,6.2,2.3,16.5,16.5,16.5h359.3c14.2,0,16.4-10.3,16.5-16.4l0-225.9c0-0.1-0.1-0.3-0.1-0.5
	c0-0.2-0.1-0.4-0.1-0.6l-0.1-0.3c0-0.1-0.1-0.3-0.1-0.4c-0.1-0.1-0.1-0.2-0.2-0.3l-0.2-0.2c-0.1-0.2-0.3-0.3-0.4-0.5
	c-0.1-0.1-0.2-0.2-0.3-0.3l-65-50.5V43.1c0-9.1-7.4-16.5-16.5-16.5h-73.3L206.1,3.4c-5.9-4.6-14.1-4.6-20,0l-29.8,23.2H83
	c-9.1,0-16.5,7.4-16.5,16.5v53.2l-65,50.5c-0.1,0.1-0.2,0.2-0.3,0.3C1,147.3,0.9,147.4,0.8,147.6 M7.9,385.9L190,244.5
	c3.6-2.8,8.6-2.8,12.2,0l182.1,141.4H7.9z M190,8.4c3.6-2.9,8.7-2.9,12.3,0l23.4,18.2h-59L190,8.4z M6.3,152.5L121,241.6
	c1.4,1.1,3.4,0.8,4.4-0.6c0.5-0.7,0.7-1.5,0.6-2.3c-0.1-0.8-0.5-1.6-1.2-2.1L10.5,147.8l56-43.5v58.6c0,1.7,1.4,3.2,3.2,3.2
	c1.7,0,3.2-1.4,3.2-3.2V43.1c0-5.6,4.6-10.2,10.2-10.2h226.2c5.6,0,10.2,4.6,10.2,10.2v119.8c0,1.7,1.4,3.2,3.2,3.2
	c1.7,0,3.2-1.4,3.2-3.2v-58.6l56,43.5l-114.5,88.9c-0.7,0.5-1.1,1.3-1.2,2.1c-0.1,0.8,0.1,1.7,0.6,2.3c0.5,0.7,1.3,1.1,2.1,1.2
	c0.8,0.1,1.7-0.1,2.3-0.6l114.9-89.2v226.7L206.1,239.5c-5.9-4.6-14.1-4.6-20,0L6.3,379.2V152.5z"/>
<g>
	<path class="st0" d="M206,140.7c-5.4,2.8-10.8,3.9-17.3,3.9c-16,0-29.5-11.7-29.5-30.5c0-20,13.9-37.5,35.5-37.5
		c16.9,0,28.2,12,28.2,28.2c0,14.6-8.2,23.2-17.2,23.2c-3.9,0-7.5-2.5-7.3-8.6h-0.3c-3.4,5.7-7.9,8.6-13.7,8.6
		c-5.6,0-10.5-4.6-10.5-12.3c0-12.1,9.5-23.1,23.1-23.1c4.1,0,7.9,0.9,10.4,2l-3.3,17.6c-1.5,7.4-0.3,10.8,2.9,10.9
		c5,0.2,10.5-6.5,10.5-17.7c0-14.2-8.5-24.4-23.5-24.4c-15.9,0-29.2,12.6-29.2,32.4c0,16.3,10.6,26.4,25,26.4
		c5.5,0,10.7-1.2,14.7-3.4L206,140.7z M200.6,98.7c-1-0.4-2.6-0.8-4.9-0.8c-8.6,0-15.5,8.1-15.5,17.5c0,4.3,2.1,7.4,6.4,7.4
		c5.6,0,10.8-7.2,11.9-13.2L200.6,98.7z"/>
</g>
</svg>
