<?xml version="1.0" encoding="utf-8"?>
<!-- Generator: Adobe Illustrator 22.0.1, SVG Export Plug-In . SVG Version: 6.00 Build 0)  -->
<svg version="1.1" id="Layer_1" xmlns="http://www.w3.org/2000/svg" xmlns:xlink="http://www.w3.org/1999/xlink" x="0px" y="0px"
	 viewBox="0 0 505 504.2" style="enable-background:new 0 0 505 504.2;" xml:space="preserve">
<style type="text/css">
	.st0{fill:#EC2F35;}
</style>
<path class="st0" d="M436.3,69.1C392.1,24.5,333.2,0,270.6,0c-51.5,0-100.4,16.5-141.4,47.7c-0.8,0.6-1.4,1.6-1.5,2.6
	c-0.1,1.1,0.1,2.1,0.8,3c1.3,1.8,3.9,2.1,5.6,0.8c25.2-19.2,53.3-32.6,83.6-39.8l14-3.4l-10.9,9.4C207,32.2,194.6,49,183.9,70.1
	c-6.8,13.4-12.8,28.4-17.7,44.5l-0.8,2.5H77.3l3.5-5.4c8.1-12.6,17.4-24.3,27.6-34.8c0.7-0.8,1.1-1.8,1.1-2.8c0-1.1-0.4-2.1-1.2-2.8
	c-0.8-0.7-1.8-1.1-2.8-1.1c-1.1,0-2.1,0.4-2.8,1.2c-25.8,26.7-45.2,59.5-56.1,94.9c0,0-0.7,2.4-1.5,5.2l-0.5,1.7l-1.6,0.6
	C9.8,186.6-7.7,223.5,3.2,257.6c1.7,5.2,4,10.2,6.8,14.9l0.6,0.9l-0.1,1.1C7.5,321.4,21.9,367.3,51.1,404l9.7,12.2
	c29.2,36.6,70.7,60.7,116.8,67.8l1.1,0.2l0.8,0.8c3.9,3.8,8.3,7.2,12.9,9.9c10.3,6.1,22.1,9.3,33.9,9.3c5.7,0,11.5-0.7,17.1-2.2
	c16.5-4.3,30.6-14.6,39.7-29.1l1.1-1.8l2.1,0.2c0.2,0,0.4,0,0.6,0c59.1-4.1,114-30.4,154.7-74.1c40.8-43.9,63.3-101.1,63.3-161.3
	C505,172.9,480.6,113.7,436.3,69.1z M469.3,126.9c17.3,31.9,26.9,68,27.6,104.4l0.1,3.6H392.2l0-3.5c-0.3-35.9-4.7-70.3-12.9-101.9
	l-1.1-4.4h90.2L469.3,126.9z M323.6,14.3c56.3,13.6,104.8,48.2,136.7,97.3l3.5,5.4h-88l-0.8-2.5c-5-16.1-10.9-31.1-17.7-44.5
	c-10.7-21-23.1-37.8-36.8-49.7l-10.9-9.4L323.6,14.3z M175.2,112.4c4.5-13.9,9.8-27,15.8-38.8v0c20.7-40.7,47.8-64,76.4-65.6l0.7,0
	c1.6,0,3.2,0,4.7,0l1.1,0c28.6,1.7,55.6,25,76.3,65.6c6,11.8,11.3,24.8,15.8,38.8l1.5,4.6H173.7L175.2,112.4z M170.7,127.6l0.7-2.6
	h198.4l0.7,2.6c8.7,32,13.3,66.9,13.6,103.7l0,3.5H236.7c-2.2,0-4,1.8-4,4s1.8,4,4,4h147.4l-0.1,3.6c-0.6,27.8-3.8,54.9-9.4,80.6
	l-0.6,2.8H167.1l-0.6-2.8c-5.6-25.6-8.8-52.7-9.4-80.5l-0.1-3.6h49.7c2.2,0,4-1.8,4-4c0-2.3-1.7-4-4-4H157l0-3.5
	C157.4,194.5,162,159.6,170.7,127.6z M112.2,293.5c13.4-4.3,20.7-18.8,16.5-32.2l-5.9-18.4H149l0.1,3.4c0.6,27.4,3.6,54.1,8.9,79.2
	l0.9,4.2H79.5c-0.2,0-0.4,0-0.7,0.1l-3,0.5l-0.9-2.9c-0.7-2.3-0.8-4.8-0.1-7.2l4.8-16.7l2-0.4c2.2-0.5,4.3-1,6.3-1.7L112.2,293.5z
	 M99.5,289.2L61.9,175.8l11.5-3.7c4.4-1.4,9.1-1.1,13.3,1.1c4.2,2.1,7.3,5.8,8.7,10.3l25.6,80.3v0c3,9.3-2.1,19.2-11.3,22.2
	L99.5,289.2z M160.7,337.7l0.7,2.6c3.8,14.8,8.4,29,13.7,42.1c0.2,0.5,0.7,1.5,1.2,2.5l1,1.7l-9,15.5c-1.1,1.9-2.1,3.9-3,5.9
	l-0.9,1.9l-17.2,1.1c-0.3,0-0.5,0-0.7,0c-3.7,0-7.2-1.7-9.6-4.6l-54.8-68.7H160.7z M55.8,163.5c4.2-12.6,9.5-24.9,15.9-36.7l1-1.8
	h90.3l-1.1,4.4c-8.2,31.7-12.6,66-12.9,102l0,3.5h-28.8L103,181c-2.1-6.5-6.6-11.9-12.7-15c-6-3.1-12.9-3.7-19.4-1.6l-17.3,5.6
	L55.8,163.5z M37.8,368.6c-15-29.3-21.6-62.2-19.1-95.2l0-0.3c0.2-1,0-2-0.6-2.9c-3.1-4.7-5.5-9.7-7.2-15
	c-10-31.4,7.2-65.1,38.3-75.2l5.1-1.6l37.6,113.4l-6.3,2c-3.1,1-6.4,1.8-9.7,2.2c-1.6,0.2-3,1.5-3.3,3.1l-0.1,0.2L67.1,318
	c-1.8,6.4-0.4,13.2,3.7,18.4l5.3,6.7l-36.4,29.4L37.8,368.6z M57.5,399.2l-2.2-2.8c-3.5-4.6-6.8-9.4-9.9-14.2l-1.6-2.6l37.4-30.2
	L96,368L57.5,399.2z M75.7,421.2c-3-3.2-5.9-6.6-8.6-10l-4.6-5.8l38.5-31.1l14.9,18.6l-38,30.7L75.7,421.2z M277.7,466.6
	c-8,13.8-20.9,23.6-36.3,27.7c-5,1.3-10,2-15,2c-10.4,0-20.6-2.8-29.8-8.2c-4.8-2.8-9.2-6.3-13-10.4c-0.7-0.7-1.6-1.2-2.6-1.2
	l-0.3,0c-35.2-5.1-67.7-20.4-94-44.3l-3-2.7l37.3-30.1l9.8,12.3c4.1,5.2,10.5,8,17.1,7.6l19.2-1.2l0.1,0c0,0,0.1,0,0.1,0
	c1.7,0,3.2-1,3.8-2.6c1.2-3.2,2.6-6.2,4.3-9l3.8-6.6l102.4,60.5L277.7,466.6z M285.5,453.1l-102.4-60.5l5-8.6
	c2.4-4.1,6.2-7,10.7-8.1c4.5-1.2,9.2-0.5,13.2,1.8l72.3,42.6c8.3,4.9,11.1,15.7,6.3,24.1L285.5,453.1z M289.8,461.7l7.7-13.2
	c7.1-12.2,3-27.9-9.1-35L216,370.9c-5.9-3.5-12.7-4.4-19.3-2.7c-4.1,1.1-8,3.2-11,6.1l-3.8,3.6l-1.9-4.9c-3.7-9.7-7-20.2-9.8-30.9
	l-1.2-4.4h203.1l-1.2,4.4c-3.9,14.8-8.7,28.8-14.1,41.6c-14.8,34.7-34.1,59.5-55.9,71.7L289.8,461.7z M470.4,342.9
	c-30.7,57.9-84.4,99.7-147.2,114.8l-14.1,3.4l11-9.4c17-14.7,32.3-37.1,44.2-64.8c6.1-14.2,11.3-29.8,15.5-46.5l0.7-2.6h92.8
	L470.4,342.9z M496.8,246.5c-1.3,28.1-7.7,55.4-19,81.1l-0.9,2.1h-94.6l0.9-4.2c5.3-25.3,8.3-52,8.9-79.3l0.1-3.4h104.8L496.8,246.5
	z"/>
</svg>
