<?xml version="1.0" encoding="utf-8"?>
<!-- Generator: Adobe Illustrator 22.0.1, SVG Export Plug-In . SVG Version: 6.00 Build 0)  -->
<svg version="1.1" id="Layer_1" xmlns="http://www.w3.org/2000/svg" xmlns:xlink="http://www.w3.org/1999/xlink" x="0px" y="0px"
	 viewBox="0 0 505 504" style="enable-background:new 0 0 505 504;" xml:space="preserve">
<style type="text/css">
	.st0{fill:#EC2F35;}
</style>
<g>
	<path class="st0" d="M120.5,211.7h0.6h10.1h9.1v-21.1l10.1,6.9l10.1,6.9l60.6,41.4l5.7-8.3l-66.3-45.3l-10.1-6.9l-10.1-6.9v-49.8
		h-9.1v-3.9c0-63.1,51.4-114.5,114.5-114.5h12.9c63.1,0,114.5,51.4,114.5,114.5v3.9H364v83.2h9.1h10.1h0.6
		c10.3,0,18.6-8.3,18.6-18.6v-46c0-10.3-8.3-18.6-18.6-18.6h-0.6v-3.9C383.2,55.8,327.4,0,258.6,0h-12.9
		c-68.8,0-124.6,55.8-124.6,124.6v3.9h-0.6c-10.3,0-18.6,8.3-18.6,18.6v46C101.9,203.4,110.3,211.7,120.5,211.7z M383.9,138.6
		c4.7,0,8.5,3.8,8.5,8.5v46c0,4.7-3.8,8.5-8.5,8.5h-0.6h-10.1v-63h10.1H383.9z M112,147.1c0-4.7,3.8-8.5,8.5-8.5h0.6h10.1v63h-10.1
		h-0.6c-4.7,0-8.5-3.8-8.5-8.5V147.1z"/>
	<rect x="130.9" y="432.2" class="st0" width="10.1" height="63.6"/>
	<path class="st0" d="M350.8,332.6h-23.3h-20.8h-109h-20.8h-22.7c-51.5,0-93.2,41.7-93.2,93.2V504h10v-47.2h0.1v-30.9
		c0-45.9,37.3-83.2,83.2-83.2h41.1h38.5c3.9,0.4,7.9,0.6,11.9,0.6h12.9c4,0,8-0.2,11.9-0.6H309h41.7c45.9,0,83.2,37.3,83.2,83.2
		v30.9v37.2V504H444v-78.1C444,374.4,402.3,332.6,350.8,332.6z"/>
	<rect x="359.6" y="432.2" class="st0" width="10.1" height="63.6"/>
	<path class="st0" d="M150.4,207.5V224c0,47.8,38.8,86.6,86.6,86.6h29.6c47.8,0,86.6-38.8,86.6-86.6v-96.4
		c0-47.8-38.8-86.6-86.6-86.6h-29.6c-47.8,0-86.6,38.8-86.6,86.6v47.6l10.1,6.9v-54.5c0-42.2,34.3-76.5,76.5-76.5h29.6
		c42.2,0,76.5,34.3,76.5,76.5V224c0,42.2-34.3,76.5-76.5,76.5h-29.6c-42.2,0-76.5-34.3-76.5-76.5v-9.6L150.4,207.5z"/>
</g>
</svg>
