<?xml version="1.0" encoding="utf-8"?>
<!-- Generator: Adobe Illustrator 22.0.1, SVG Export Plug-In . SVG Version: 6.00 Build 0)  -->
<svg version="1.1" id="Layer_1" xmlns="http://www.w3.org/2000/svg" xmlns:xlink="http://www.w3.org/1999/xlink" x="0px" y="0px"
	 viewBox="0 0 504 427.3" style="enable-background:new 0 0 504 427.3;" xml:space="preserve">
<style type="text/css">
	.st0{fill:#EC2F35;}
</style>
<path class="st0" d="M238.9,427.3h54.4c10.2,0,18.5-8.3,18.5-18.5v-5.7h21.6c45.1,0,81.7-36.7,81.7-81.7v-5.6h23
	c36.4,0,65.9-29.6,65.9-65.9c0-36.4-29.6-65.9-65.9-65.9h-5.4v-34.4C432.6,67.1,370.6,0,294.4,0H261c-1.9,0-3.5,1.6-3.5,3.5
	c0,1.9,1.6,3.5,3.5,3.5h33.5c72.3,0,131.1,63.9,131.1,142.5v34.4h-30.1v-34.4c0-62-45.3-112.4-101-112.4h-87
	c-55.7,0-101,50.4-101,112.4v34.4H76.3v-34.4C76.3,71,135.1,7.1,207.5,7.1h23.4c1.9,0,3.5-1.6,3.5-3.5c0-1.9-1.6-3.5-3.5-3.5h-23.4
	C131.2,0,69.3,67.1,69.3,149.6v34.3l-4,0C29.3,184.3,0,213.9,0,249.9c0,36.4,29.6,65.9,65.9,65.9h43.5c13,0,23.6-10.6,23.6-23.6
	v-84.6c0-10.3-6.9-19.6-16.8-22.6l-2.8-0.9v-34.5c0-40.5,21.2-78,54-95.3l5.9-3.1v7.3c0,10.3,8.4,18.8,18.8,18.8h117.7
	c10.4,0,18.8-8.4,18.8-18.8v-7.3l5.9,3.1c32.8,17.4,54,54.8,54,95.3v35l-2.5,1c-9.1,3.6-14.9,12.2-14.9,22v84.6
	c0,13,10.6,23.6,23.6,23.6H408v5.6c0,41.2-33.5,74.6-74.6,74.6h-21.6v-5.7c0-9.7-7.5-17.7-17.2-18.4l-0.2,0c-0.1,0-0.3,0-0.4,0h-0.6
	c-1.9,0-3.5,1.6-3.5,3.5s1.6,3.5,3.5,3.5c6.3,0,11.4,5.1,11.4,11.4v18.5c0,6.3-5.1,11.4-11.4,11.4h-54.4c-11.4,0-20.6-9.2-20.6-20.6
	c0-11.4,9.2-20.6,20.6-20.6h24.9c1.9,0,3.5-1.6,3.5-3.5s-1.6-3.5-3.5-3.5h-24.9c-15.3,0-27.7,12.4-27.7,27.7
	C211.2,414.8,223.6,427.3,238.9,427.3 M415.1,191h22.1c15.7,0,30.6,6.1,41.9,17.2c11.5,11.2,17.8,25.9,17.8,41.5
	c0,14.7-5.4,28.8-15.3,39.7h0c-10.4,11.5-25.6,18.4-41.7,19l-9.1,0.3h-15.7V191z M88.9,308.7l-15.8,0l-9-0.3
	c-16.1-0.6-31.3-7.5-41.7-19c-9.9-10.9-15.4-25-15.3-39.7c0-15.6,6.4-30.3,17.8-41.5C36.3,197.1,51.2,191,66.8,191h22.1V308.7z
	 M126,207.6v84.6c0,9.1-7.4,16.6-16.6,16.6H96V191h13.5C118.6,191,126,198.4,126,207.6 M321.5,58.5c0,6.5-5.2,11.7-11.7,11.7H192.1
	c-6.5,0-11.7-5.2-11.7-11.7v-9.9l2.9-0.9c7.9-2.4,16-3.5,24.2-3.5h87c8.2,0,16.3,1.2,24.2,3.5l2.9,0.9V58.5z M394.5,308.7
	c-9.1,0-16.6-7.4-16.6-16.6v-84.6c0-9.1,7.4-16.6,16.6-16.6H408v117.7H394.5z"/>
<path class="st0" d="M307.6,272.4l11.6,2.2c0.5,0.1,1.1,0.1,1.7,0.1c3.9,0,7.3-2.4,8.7-6l5.5-14.6c1.6-4.3-0.1-9-4.1-11.3l-10-5.8
	c-1-0.7-1.6-1.7-1.6-2.8c0.2-3.7,0.1-7.4-0.3-11c-0.1-1.1,0.3-2.2,1.2-2.9l0.1-0.1l9.9-6.7c3.7-2.5,5.1-7.3,3.2-11.4l-6.4-14.1
	c-1.5-3.3-4.8-5.4-8.4-5.4c-0.8,0-1.6,0.1-2.4,0.3L305,186c-1.1,0.3-2.3,0-3.2-0.9c-2.7-2.9-5.3-5.4-8-7.5c-1-0.7-1.5-2.1-1.1-3.3
	l2.2-11.5c0.9-4.5-1.6-8.8-5.9-10.4l-14.6-5.5c-1-0.4-2.1-0.6-3.2-0.6c-3.3,0-6.4,1.8-8,4.6l-5.8,10c-0.7,1-1.7,1.6-2.9,1.6
	c-3.9-0.2-7.7-0.1-11.4,0.3c-1.1,0.1-2.3-0.3-3-1.2l-6.7-9.9c-1.7-2.5-4.6-4.1-7.6-4.1c-1.3,0-2.6,0.3-3.8,0.8l-14.1,6.4
	c-4.1,1.9-6.2,6.4-5.1,10.8l3,11.4c0.3,1.1-0.1,2.4-1.1,3.2c-2.8,2.8-5.2,5.4-7.2,8c-0.8,0.9-1.9,1.4-3,1.2l-11.7-2.3
	c-0.6-0.1-1.1-0.1-1.6-0.1c-3.8,0-7.2,2.2-8.7,5.7l-0.1,0.2c0,0,0,0.1,0,0.1l-5.4,14.5c-1.6,4.3,0.1,9,4.1,11.3l10.2,5.9
	c1,0.7,1.6,1.7,1.6,2.8c-0.2,3.9,0,7.6,0.4,11.1c0.2,1.2-0.4,2.4-1.3,3.1l-9.8,6.6c-3.7,2.5-5.1,7.3-3.2,11.4l6.4,14.1
	c1.5,3.3,4.8,5.4,8.4,5.4c0.8,0,1.6-0.1,2.3-0.3l11.4-3c0.2-0.1,0.5-0.1,0.8-0.1c0.9,0,1.8,0.4,2.4,1.2c2.1,2.4,4.8,4.8,8,7.4
	c0.9,0.7,1.3,1.9,1.2,3l-2.2,11.6c-0.9,4.4,1.6,8.8,5.9,10.4l14.6,5.5c1,0.4,2.1,0.6,3.2,0.6c3.3,0,6.4-1.8,8-4.6l5.9-10.1
	c0.7-1,1.7-1.6,2.9-1.6c3.2,0.2,6.6,0,10.5-0.3c1.2-0.1,2.4,0.4,3,1.3l6.7,9.9c1.7,2.5,4.6,4.1,7.6,4.1c1.3,0,2.6-0.3,3.8-0.8
	l14.1-6.4c4.1-1.9,6.2-6.4,5.1-10.8l-3-11.2c-0.3-1.1,0-2.3,0.9-3.1c2.8-2.5,5.3-5.2,7.5-8C305.2,272.5,306.5,272.1,307.6,272.4
	 M299.4,269.6c-1.9,2.5-4.2,4.9-6.8,7.2c-2.7,2.5-3.9,6.2-2.9,9.7l3,11.2c0.4,1.2-0.3,2.7-1.5,3.2l-14,6.4c-0.4,0.2-0.8,0.2-1.1,0.2
	c-1,0-1.8-0.5-2.3-1.3l-6.6-9.8c-2.1-3-5.6-4.6-9.2-4.2c-3.2,0.4-6.4,0.5-9.5,0.3c-3.6-0.1-7.1,1.7-8.9,4.9l-5.9,10.1
	c-0.4,0.8-1.3,1.4-2.4,1.4c-0.3,0-0.6,0-0.8-0.1l-14.8-5.5c-1.2-0.4-2-1.8-1.7-3.1l2.2-11.5c0.7-3.6-0.7-7.2-3.6-9.5
	c-2.5-2-4.9-4.2-7.3-6.8c-1.8-2-4.5-3.2-7.2-3.2c-0.9,0-1.7,0.1-2.5,0.3l-11.4,3c-1.2,0.3-2.4-0.2-3-1.2l-0.1-0.2l-6.5-14.2
	c-0.5-1.2-0.1-2.6,0.9-3.3l9.8-6.7c3-2,4.6-5.6,4.2-9.2c-0.4-3.2-0.5-6.6-0.4-9.9c0.1-3.7-1.7-7.1-4.8-8.9l-10.2-5.9
	c-1.1-0.6-1.7-1.9-1.3-3.2l5.6-14.9c0.5-0.9,1.5-1.5,2.5-1.5l0.4,0l11.6,2.2c0.6,0.1,1.2,0.2,1.8,0.2c3-0.1,5.8-1.6,7.7-3.9
	c2.1-2.7,4.4-5.2,6.8-7.3c2.7-2.4,3.8-6.1,2.9-9.7l-3-11.4c-0.4-1.2,0.3-2.7,1.5-3.2l14-6.4c0.4-0.2,0.8-0.2,1.1-0.2
	c1,0,1.8,0.5,2.3,1.3l6.6,9.7c2,3,5.6,4.6,9.3,4.2c3.5-0.4,6.9-0.5,10.2-0.3c3.7,0.2,7.2-1.6,9-4.8l5.8-10c0.5-1.1,1.9-1.7,3.2-1.3
	l14.8,5.5c1.2,0.4,2,1.8,1.7,3.1l-2.2,11.7c-0.7,3.5,0.7,7.1,3.5,9.5c2.4,1.9,4.8,4.2,7.1,6.7c1.9,2.1,4.5,3.2,7.2,3.2
	c0.9,0,1.8-0.1,2.6-0.3l11.1-3.1c1.3-0.3,2.4,0.2,3.1,1.2l0.1,0.2l6.5,14.2c0.5,1.2,0.1,2.6-0.8,3.3l-9.9,6.7c-3,2-4.6,5.5-4.2,9.2
	c0.4,3.4,0.5,6.7,0.3,9.9c-0.2,3.7,1.6,7.1,4.8,9l10,5.8c1.1,0.6,1.7,1.9,1.3,3.2l-5.5,14.8c-0.5,1.2-1.8,2-3.1,1.7l-11.7-2.2
	c-0.6-0.1-1.2-0.2-1.8-0.2C304.1,265.9,301.3,267.3,299.4,269.6"/>
<path class="st0" d="M261.7,200.9c-3.5-1.2-7.1-1.9-10.6-1.9c-13.4,0-25.4,8.5-29.9,21.1c-5.8,16.5,2.8,34.6,19.2,40.5
	c3.5,1.2,7.1,1.9,10.6,1.9c13.4,0,25.4-8.5,29.9-21.1c2.8-7.9,2.4-16.5-1.3-24.2C276,209.5,269.6,203.7,261.7,200.9 M274.8,239.2
	c-3.5,10-13,16.7-23.7,16.7c-2.8,0-5.6-0.5-8.4-1.4c-6.3-2.2-11.4-6.8-14.3-12.9c-2.9-6.1-3.2-12.9-1-19.2
	c3.5-10,13.1-16.7,23.7-16.7c2.8,0,5.6,0.5,8.4,1.4c6.3,2.3,11.4,6.8,14.3,12.9C276.7,226,277.1,232.8,274.8,239.2"/>
</svg>
