<?xml version="1.0" encoding="utf-8"?>
<!-- Generator: Adobe Illustrator 22.0.1, SVG Export Plug-In . SVG Version: 6.00 Build 0)  -->
<svg version="1.1" id="Layer_1" xmlns="http://www.w3.org/2000/svg" xmlns:xlink="http://www.w3.org/1999/xlink" x="0px" y="0px"
	 viewBox="0 0 469 390" style="enable-background:new 0 0 469 390;" xml:space="preserve">
<style type="text/css">
	.st0{fill:#EC2F35;}
</style>
<path class="st0" d="M123.6,388.3c0.7,1.1,1.9,1.8,3.2,1.8h171.9h0c1.3,0,2.5-0.7,3.2-1.8l0,0c0.7-1.1,0.7-2.5,0.1-3.6l-18.2-24.9
	c-0.6-1.2-1.9-2-3.3-2H144.9c-1.4,0-2.6,0.8-3.3,2l-18.2,24.9C122.9,385.8,123,387.2,123.6,388.3 M147.2,365.1h131.1l14.3,17.5
	H132.9L147.2,365.1z"/>
<path class="st0" d="M289.5,132.7h13.3v-13.5l45.2,32.5c0,0,0,0,0,0l0.5,0.3l0.6,0.4l0,0l2,1.4c1.2,0.8,2.9,0.5,3.7-0.7l0.3-0.5
	c0.8-1.2,0.5-2.9-0.7-3.7l-3.1-2.1c0,0,0,0-0.1,0l-48.5-34.9V81.4h-8c0.2-20,8.1-38.9,22.4-53.2c14.4-14.5,33.5-22.4,53.8-22.4h5.7
	c20.3,0,39.4,8,53.8,22.4c14.3,14.3,22.2,33.1,22.4,53.2h-10.3v51.3h13.3c7.3,0,13.2-5.9,13.2-13.2v-25c0-6.2-4.3-11.4-10.3-12.7
	c0-21.7-8.6-42.3-24.1-57.8C419,8.6,398.5,0,376.6,0h-5.7c-21.8,0-42.4,8.6-57.9,24.1c-15.4,15.4-23.9,35.7-24.1,57.3
	c-7,0.3-12.6,6.1-12.6,13.2v25C276.3,126.8,282.2,132.7,289.5,132.7 M463.2,94.6v25c0,4.1-3.3,7.4-7.4,7.4h-7.5V87.2h7.5
	C459.9,87.2,463.2,90.5,463.2,94.6 M282.1,94.6c0-4.1,3.3-7.4,7.4-7.4h7.5v39.7h-7.5c-4.1,0-7.4-3.3-7.4-7.4V94.6z"/>
<path class="st0" d="M386.8,27.4h-57.7c-2.4,1.8-5.2,4.3-7.8,7.4h65.4c11.7,0,21.3,9.5,21.3,21.3v214H7.4v-214
	c0-11.7,9.6-21.3,21.3-21.3h265.2c1.5-2.1,4.5-4.8,6.4-7.4H28.7C12.9,27.4,0,40.3,0,56.1v236.8c0,15.8,12.9,28.7,28.7,28.7h134.5
	l-4,38.2c-0.1,1,0.2,2.1,0.9,2.9c0.7,0.8,1.7,1.2,2.7,1.2H260c1,0,2-0.4,2.7-1.2c0.7-0.8,1-1.8,0.9-2.9l-4-38.2h127.2
	c15.8,0,28.7-12.9,28.7-28.7V56.1C415.5,40.3,402.6,27.4,386.8,27.4 M166.9,356.5l3.7-34.9h81.6l3.7,34.9H166.9z M408.1,292.9
	c0,11.7-9.6,21.3-21.3,21.3H28.7c-11.7,0-21.3-9.5-21.3-21.3v-15.4h400.7V292.9z"/>
<path class="st0" d="M361.1,163.7l-14.8-11.2c-2.1-1.6-2.5-4.6-0.9-6.7c1.6-2.1,4.6-2.5,6.7-0.9l14.8,11.2c2.1,1.6,2.5,4.6,0.9,6.7
	C366.2,164.9,363.2,165.3,361.1,163.7"/>
</svg>
