<?xml version="1.0" encoding="utf-8"?>
<!-- Generator: Adobe Illustrator 22.0.1, SVG Export Plug-In . SVG Version: 6.00 Build 0)  -->
<svg version="1.1" id="Layer_1" xmlns="http://www.w3.org/2000/svg" xmlns:xlink="http://www.w3.org/1999/xlink" x="0px" y="0px"
	 viewBox="0 0 470 452.6" style="enable-background:new 0 0 470 452.6;" xml:space="preserve">
<style type="text/css">
	.st0{fill:#EC2F35;}
</style>
<path class="st0" d="M257.5,79.5c34.5,0,66.9,13,91.3,36.5c24.5,23.6,38,55.1,38,88.6c0,2,1.9,3.7,4.2,3.7s4.2-1.7,4.2-3.7
	c0-35.3-14.3-68.6-40.2-93.6c-26-25.1-60.7-39-97.6-39c-2.3,0-4.2,1.7-4.2,3.7C253.3,77.8,255.2,79.5,257.5,79.5L257.5,79.5z"/>
<path class="st0" d="M257.5,7.4c54.4,0,105.6,20.5,144.2,57.6c38.6,37.3,59.9,86.8,59.9,139.6c0,2,1.9,3.7,4.2,3.7s4.2-1.7,4.2-3.7
	C470,150,448,98.7,407.9,60.1C367.8,21.3,314.3,0,257.5,0c-2.3,0-4.2,1.7-4.2,3.7C253.3,5.7,255.2,7.4,257.5,7.4"/>
<path class="st0" d="M320.6,204.6c0-16.3-6.3-31.1-18.3-42.6c-12.1-11.7-27.6-17.8-44.7-17.8c-1.6,0-2.7,0.8-3.1,1.2
	c-0.5,0.5-1.1,1.3-1.1,2.5c0,2,1.9,3.7,4.2,3.7c14.9,0,27.9,5.2,38.5,15.4c10.6,10.2,16.1,23.2,16.1,37.7c0,1.2,0.6,2,1.1,2.5
	c0.5,0.5,1.5,1.2,3.1,1.2C318.7,208.3,320.6,206.6,320.6,204.6"/>
<path class="st0" d="M454.6,367.6l-96.2-92.8c-7.5-7.2-19.6-7.2-27.1,0l-25,24.1c-4.7,4.6-6.5,11.2-4.7,17.4l1.8,6.1l-14,13.5
	c-10.1,9.8-32.3,2.1-44.6-3.3c-15.4-6.8-39.9-20.8-68.9-48.8c-19.2-18.5-34.9-38-45.4-56.4c-8.9-15.6-13.7-29.8-13.7-40.1
	c0-3.6,0.6-6.8,1.8-9.4l6.3-7.5l10.7-10.3l5.8,1.6c1.8,0.5,3.6,0.7,5.4,0.7c5.1,0,10-1.9,13.5-5.4l25-24.1c3.5-3.4,5.4-7.8,5.4-12.5
	c0-4.7-1.9-9.2-5.4-12.5L89.1,15c-3.6-3.5-8.4-5.4-13.5-5.4c-5.1,0-9.9,1.9-13.5,5.4L37,39.2c-4.7,4.6-6.5,11.2-4.7,17.4l1.8,6.1
	l-4.6,4.4c-3.3,3.2-7,6.8-7.9,7.7L21.5,75c-23.9,25.6-28,67-11.7,116.7C26.6,242.8,62.9,297,112,344.4
	c49.2,47.4,105.5,82.5,158.4,98.7c20.7,6.3,40.2,9.6,57.9,9.6c28.2,0,50.7-7.9,66.9-23.6l9.6-9.2l5.8,1.6c1.8,0.5,3.6,0.7,5.4,0.7
	c5.1,0,9.9-1.9,13.5-5.4l25-24.1c3.5-3.4,5.4-7.8,5.4-12.5S458.1,370.9,454.6,367.6 M43.8,43.7l22.8-24c4.5-4.8,12.2-5,17-0.4
	l95.3,90.5c4.8,4.5,5,12.2,0.4,17l-22.8,24c-4.5,4.8-12.2,5-17,0.4L44.3,60.6C39.5,56.1,39.3,48.5,43.8,43.7 M389.1,424.1
	c-14.6,14-35.3,21.1-60.7,21.1c-16.6,0-35.1-3-55.1-9.1c-51.7-15.8-106.7-50.1-155-96.7C70,292.8,34.4,239.7,18,189.7
	C1.8,140.6,6.2,100.7,30.4,77.3l0.1-0.1l9.9-9.6l89.8,86.6l-14.7,14.2c-4.8,4.6-7.1,10.8-7.1,18.8c0,25.9,24,65.8,61.2,101.6
	c37.3,35.9,78.8,59.2,105.9,59.2c8.6,0,15.2-2.3,20.1-7l14.1-13.6l89.8,86.6L389.1,424.1z M448.4,386.8l-22.8,24
	c-4.5,4.8-12.2,5-17,0.4l-95.3-90.5c-4.8-4.5-5-12.2-0.4-17l22.8-24c4.5-4.8,12.2-5,17-0.4l95.3,90.5
	C452.8,374.4,453,382,448.4,386.8"/>
</svg>
