<?xml version="1.0" encoding="utf-8"?>
<!-- Generator: Adobe Illustrator 22.0.1, SVG Export Plug-In . SVG Version: 6.00 Build 0)  -->
<svg version="1.1" id="Layer_1" xmlns="http://www.w3.org/2000/svg" xmlns:xlink="http://www.w3.org/1999/xlink" x="0px" y="0px"
	 viewBox="0 0 300 300" style="enable-background:new 0 0 300 300;" xml:space="preserve">
<style type="text/css">
	.st0{fill:#EC2F35;}
</style>
<g>
	<rect x="129.9" y="98" class="st0" width="55.1" height="4.3"/>
	<rect x="131.6" y="153" class="st0" width="53.5" height="4.3"/>
	<rect x="131.6" y="207.9" class="st0" width="53.5" height="4.3"/>
	<polygon class="st0" points="91.4,87.2 74,103 64.3,95 61.6,98.3 74.2,108.8 94.3,90.4 	"/>
	<polygon class="st0" points="91.4,141.6 74,157.5 64.3,149.5 61.6,152.8 74.2,163.2 94.3,144.9 	"/>
	<polygon class="st0" points="64.3,203.8 61.6,207.2 74.2,217.6 94.3,199.2 91.4,196 74,211.8 	"/>
	<polygon class="st0" points="240.7,278.9 31.5,278.9 31.5,23.6 70.4,23.6 70.4,42.3 75.1,42.3 75.1,23.6 112.2,23.6 112.2,42.3 
		116.9,42.3 116.9,23.6 156.6,23.6 156.6,42.3 161.3,42.3 161.3,23.6 198.4,23.6 198.4,42.3 203.1,42.3 203.1,23.6 240.7,23.6 
		240.7,161 245.5,161 245.5,19.2 203.4,19.2 203.4,4 203.3,4 198.5,4 198.5,19.2 161.5,19.2 161.5,4 156.7,4 156.7,19.2 117,19.2 
		117,4 112.3,4 112.3,19.2 75.1,19.2 75.1,4 70.4,4 70.4,19.2 26.8,19.2 26.8,283.2 245.5,283.2 245.5,260.3 240.7,260.3 	"/>
	<path class="st0" d="M244.8,168.4c-0.5,0-0.9,0-1.4,0c-1.2,0-2.3,0.1-3.5,0.1c-22.3,1.8-40,20.5-40,43.3c0,22.8,17.6,41.5,40,43.3
		c1.1,0.1,2.3,0.1,3.5,0.1c0.5,0,0.9,0,1.4,0c23.3-0.7,42.1-19.9,42.1-43.4C286.9,188.4,268.1,169.2,244.8,168.4z M244.8,250.3
		c-0.5,0-0.9,0-1.4,0c-1.2,0-2.3-0.1-3.5-0.2c-19.6-1.8-35-18.2-35-38.3c0-20,15.4-36.5,35-38.3c1.1-0.1,2.3-0.2,3.5-0.2
		c0.5,0,0.9,0,1.4,0c20.6,0.7,37.1,17.7,37.1,38.4C281.9,232.6,265.4,249.5,244.8,250.3z"/>
	<path class="st0" d="M245.7,209.1l-0.3-0.1v-13.7l0.7,0.3c3.3,1.2,3.8,4.7,3.9,6.3h4.7c-0.1-3.1-1.4-9.3-8.9-10.4l-0.4-0.1v-5.5h-4
		v5.6l-0.4,0.1c-5.3,0.9-8.5,4.6-8.5,10c0,5.2,2.2,7.9,8.7,10.7l0.3,0.1v15.9l-0.7-0.3c-2.7-1-4.4-3.5-4.7-7.1h-4.8
		c0.3,6.4,3.8,10.4,9.8,11.2l0.4,0.1v5.5h4v-5.5l0.4-0.1c6.3-0.8,9.8-4.7,9.8-11.1C255.7,215.2,253.2,212.2,245.7,209.1z
		 M241.4,207.3l-0.8-0.4c-2.4-1.4-3.4-3-3.4-5.6c0-2.8,1.2-4.8,3.4-5.6l0.7-0.3V207.3z M246.1,228.3l-0.6,0.2V214l0.7,0.4
		c3.3,1.8,4.6,3.9,4.6,7.2C250.8,225.1,249,227.5,246.1,228.3z"/>
</g>
</svg>
