<?xml version="1.0" encoding="utf-8"?>
<!-- Generator: Adobe Illustrator 22.0.1, SVG Export Plug-In . SVG Version: 6.00 Build 0)  -->
<svg version="1.1" id="Layer_1" xmlns="http://www.w3.org/2000/svg" xmlns:xlink="http://www.w3.org/1999/xlink" x="0px" y="0px"
	 viewBox="0 0 300 300" style="enable-background:new 0 0 300 300;" xml:space="preserve">
<style type="text/css">
	.st0{fill:#EC2F35;}
</style>
<g>
	<path class="st0" d="M290.2,198.9c0-2.6-1.9-4.8-4.6-5.2l-6.6-1.1c-0.7-0.2-1.2-0.6-1.4-1.2c-0.7-2-1.5-4-2.4-5.9
		c-0.3-0.6-0.3-1.2,0-1.8l0-0.1l3.9-5.7c1.5-2.1,1.2-5-0.6-6.8l-6.4-6.3c-1.5-1.5-3.7-1.9-5.6-1.2c-0.4,0.2-0.8,0.4-1.2,0.7l-5.4,4
		c-0.5,0.4-1.2,0.5-1.9,0.2c-2.1-1-4-1.8-5.9-2.4c-0.7-0.2-1.2-0.8-1.3-1.6l-1.2-6.7c-0.4-2.6-2.7-4.4-5.3-4.4l-9,0.1
		c-0.6,0-1.3,0.1-1.8,0.3c-1.8,0.7-3.1,2.3-3.4,4.1l-1.1,6.6c-0.2,0.7-0.6,1.2-1.2,1.5c-2.1,0.7-4.2,1.5-6.1,2.5
		c-0.6,0.3-1.3,0.3-1.9,0l-5.7-3.9c-1.4-1-3.3-1.3-4.9-0.6c-0.7,0.3-1.3,0.7-1.9,1.2l-6.3,6.4c-1.8,1.9-2,4.7-0.5,6.9l4,5.5
		c0.4,0.5,0.4,1.3,0.1,2c-0.9,2.1-1.7,4-2.2,5.8c-0.2,0.7-0.7,1.1-1.4,1.3l-6.8,1.2c-0.3,0.1-0.6,0.2-0.9,0.3
		c-2,0.8-3.4,2.7-3.5,4.9l0,0.1l0,0.1l0.1,8.9c0,2.6,1.9,4.8,4.6,5.2l6.7,1.1c0.7,0.2,1.2,0.6,1.4,1.2c0.7,2.1,1.6,4.1,2.5,5.9
		c0.4,0.6,0.3,1.4-0.1,1.9l-3.9,5.6c-1.5,2.1-1.2,5,0.6,6.8l6.4,6.3c1.5,1.5,3.7,1.9,5.6,1.2c0.4-0.2,0.8-0.4,1.2-0.6l5.5-4
		c0.1-0.1,0.2-0.2,0.4-0.2c0.5-0.2,1.1-0.2,1.5,0.1c1.6,0.9,3.6,1.6,5.8,2.3c0.6,0.2,1.1,0.8,1.3,1.4l1.2,6.7c0.3,1.7,1.4,3.1,3,3.8
		l-12.4,17.2h-36.2c-7.2-18.2-8.1-69.8-5-78.5c3.3-9.3,21.2-65.3,20.3-89.7c-0.9-22.6-26.1-77.2-83.2-77.7c-0.3,0-0.5,0-0.8,0
		c-50.2,0-72.3,40.9-79.4,58.5c-3.5,8.7-3.5,27.3-3.5,39.7l0,2.1c0,4-2.5,15.3-19,46.4l-0.5,0.9c-2.5,4.7-3.9,11-4,11.3l-0.5,2.4
		h26.5l2.4,50.6h42.1v34.1H55.5v3.8h167.9l14.7-20.5l7.1,0c0.6,0,1.3-0.1,1.8-0.3c1.8-0.7,3.1-2.3,3.4-4.1l1.1-6.7
		c0.2-0.7,0.6-1.2,1.2-1.5c1.8-0.6,3.6-1.4,5.6-2.3c0.6-0.3,1.4-0.3,1.9,0.1l5.7,3.9c1.4,1,3.3,1.3,4.9,0.6c0.7-0.3,1.3-0.7,1.9-1.2
		l6.3-6.4c1.8-1.9,2-4.7,0.5-6.9l-3.9-5.4c-0.4-0.5-0.5-1.2-0.2-1.9c1-1.9,1.8-3.9,2.4-5.9c0.1-0.9,0.8-1.4,1.4-1.5l6.7-1.2
		c0.3,0,0.6-0.2,0.9-0.3c2.1-0.8,3.4-2.8,3.4-5L290.2,198.9z M42.1,232.6L39.7,182H14.5c0.6-2.2,1.7-5.4,3-8l0.5-0.9
		c12.9-24.3,19.4-40.5,19.4-48.2l0-2.1c0-11.3,0-30.2,3.2-38.2c6.9-16.9,28-56.1,75.9-56.1c0.3,0,0.5,0,0.8,0
		c54.5,0.5,78.6,52.4,79.4,74c1,23.8-16.7,79.1-20,88.3c-3.4,9.4-2.5,59.7,4.5,79.8H84.4v-37.9H42.1z M285.3,209.4l-6.8,1.2
		c-0.3,0.1-0.7,0.1-1,0.3c-1.5,0.8-2.7,2.1-3.3,3.7c-0.5,1.7-1.2,3.5-2.2,5.3c-0.9,1.9-0.8,4.1,0.4,5.8l3.9,5.4
		c0.5,0.6,0.4,1.5-0.1,2l-6.2,6.4c-0.2,0.2-0.4,0.3-0.6,0.3c-0.5,0.2-1.1,0.1-1.5-0.2l-5.6-3.9c-1.8-1.2-4-1.3-5.8-0.4
		c-1.6,0.9-3.3,1.6-5.1,2.1c-2,0.7-3.5,2.4-3.8,4.5l-1.1,6.7c0,0.5-0.4,1-1,1.3c-0.2,0.1-0.3,0.1-0.5,0.1l-9.1,0.1
		c-0.7,0-1.5-0.6-1.6-1.3l-1.2-6.7c-0.4-2.1-1.9-3.7-3.9-4.4c-1.8-0.6-3.5-1.2-5.3-2.2c-1.4-0.7-3.1-0.8-4.5-0.2
		c-0.5,0.2-0.9,0.4-1.3,0.7l-5.5,4c-0.6,0.4-1.3,0.4-1.9,0l-0.1-0.1l-6.4-6.3c-0.5-0.5-0.6-1.4-0.2-2l3.9-5.6c1.2-1.7,1.3-4,0.4-5.8
		c-0.9-1.6-1.6-3.5-2.3-5.3c-0.7-2-2.4-3.5-4.4-3.8l-6.7-1.1c-0.7-0.1-1.3-0.7-1.4-1.5l-0.1-9.2c0.1-0.6,0.5-1.1,1-1.3l0.2-0.1
		l6.7-1.2c0.3-0.1,0.7-0.1,1-0.3c1.6-0.7,2.8-2.1,3.3-3.7c0.6-1.9,1.3-3.7,2.2-5.3c1-1.9,0.8-4.1-0.4-5.8l-4-5.5
		c-0.5-0.6-0.4-1.5,0.1-2l6.2-6.4c0.2-0.2,0.4-0.3,0.6-0.3c0.5-0.2,1.1-0.1,1.5,0.2l5.6,3.9c1.7,1.2,4,1.3,5.9,0.3
		c1.8-0.9,3.6-1.7,5.4-2.3c2-0.7,3.5-2.4,3.9-4.5l1.1-6.6c0-0.7,0.7-1.3,1.5-1.4l9.1-0.1c0.7,0,1.5,0.6,1.6,1.3l1.2,6.8
		c0.3,2,1.8,3.7,3.9,4.4c1.7,0.5,3.5,1.3,5.2,2.1c1.5,0.7,3.1,0.8,4.5,0.2c0.5-0.2,0.9-0.4,1.3-0.7l5.3-4c0.6-0.4,1.3-0.4,1.9,0
		l0.1,0.1l6.4,6.3c0.5,0.5,0.6,1.4,0.3,1.9l-3.9,5.7c-1.2,1.7-1.3,3.9-0.4,5.8c0.9,1.7,1.7,3.5,2.2,5.3c0.7,2,2.3,3.5,4.5,3.9
		l6.6,1.1c0.7,0.1,1.3,0.7,1.4,1.5l0.1,9.1C286.6,208.6,286,209.3,285.3,209.4z"/>
	<path class="st0" d="M247.6,182.7c-2.5-0.8-5-1.3-7.5-1.3c-9.4,0-17.9,6-21.1,14.9c-4.1,11.6,2,24.4,13.5,28.6
		c2.5,0.8,5,1.3,7.5,1.3c9.4,0,17.9-6,21.1-14.9c2-5.6,1.7-11.6-0.9-17.1C257.7,188.7,253.2,184.6,247.6,182.7z M256.9,209.7
		c-2.5,7.1-9.2,11.8-16.7,11.8c-2,0-3.9-0.4-5.9-1c-4.4-1.6-8-4.8-10.1-9.1c-2-4.3-2.3-9.1-0.7-13.5c2.5-7.1,9.2-11.8,16.7-11.8
		c2,0,3.9,0.4,5.9,1c4.4,1.6,8,4.8,10.1,9.1C258.2,200.4,258.5,205.1,256.9,209.7z"/>
	<path class="st0" d="M92,161.1c0.3,1,0.2,7.2,0,13h-4.9v31.6h13.7v7.3c0,2.1,1.7,3.8,3.8,3.8h26.6c2.1,0,3.8-1.7,3.8-3.8v-7.3h11.5
		v-31.6h-3.2c-0.2-5.8-0.2-11.9,0-13c0.8-3,2.4-5.3,5.2-9.1c3.5-4.8,8.4-11.4,14.7-24.1l-1.8-0.9l1.9,0.9c3.6-7.4,5.4-15.4,5.4-23.8
		c0-29.3-22.8-53.1-50.9-53.1s-50.9,23.8-50.9,53.1c0,8.3,1.8,16.3,5.4,23.8l1.8-0.9l-1.7,0.9c6.3,12.7,11.1,19.3,14.7,24.1
		C89.5,155.8,91.2,158,92,161.1z M142.5,177.9v5.7H90.9v-5.7H142.5z M142.5,187.4v5.5H90.9v-5.5H142.5z M131,212.9l-26.4,0.1v-7.3
		H131V212.9z M134.8,201.8h-34.1h-9.8v-5.1h51.6v5.1H134.8z M75.5,126.2c-3.3-6.9-5-14.3-5-22.1c0-27.2,21.1-49.3,47-49.3
		s47,22.1,47,49.3c0,7.8-1.7,15.2-5,22.1l0,0c-6.1,12.4-10.9,18.8-14.3,23.5c-2.8,3.8-4.9,6.6-5.8,10.4c-0.5,1.9-0.3,9.6-0.1,13.9
		h-9.4c-0.3-5.3-1.2-21.2,0.1-28.1c1.1-6.2,3.1-8.7,3.8-9.4c4.1-0.4,7.3-3.9,7.3-8.1c0-4.5-3.7-8.2-8.2-8.2c-4.5,0-8.2,3.7-8.2,8.2
		c0,3.3,2,6.1,4.8,7.4c-1.1,1.8-2.4,4.8-3.3,9.4c-1.4,7.3-0.5,23.2-0.2,28.8h-15.6c0.4-5.7,1.2-21.5-0.2-28.8
		c-0.8-4.6-2.1-7.5-3.3-9.4c2.8-1.3,4.8-4.1,4.8-7.4c0-4.5-3.7-8.2-8.2-8.2c-4.5,0-8.2,3.7-8.2,8.2c0,4.2,3.2,7.6,7.3,8.1
		c0.7,0.8,2.6,3.3,3.8,9.4c1.3,6.9,0.4,22.8,0.1,28.1H95.8c0.1-4.3,0.3-12-0.1-13.9c-1-3.8-3-6.6-5.8-10.4
		C86.4,145.1,81.7,138.7,75.5,126.2L75.5,126.2z M132.9,132.8c-2.4,0-4.3-1.9-4.3-4.3s1.9-4.3,4.3-4.3c2.4,0,4.3,1.9,4.3,4.3
		S135.3,132.8,132.9,132.8z M103.6,132.8c-2.4,0-4.3-1.9-4.3-4.3s1.9-4.3,4.3-4.3c2.4,0,4.3,1.9,4.3,4.3S106,132.8,103.6,132.8z"/>
</g>
</svg>
