<?xml version="1.0" encoding="utf-8"?>
<!-- Generator: Adobe Illustrator 22.0.1, SVG Export Plug-In . SVG Version: 6.00 Build 0)  -->
<svg version="1.1" id="Layer_1" xmlns="http://www.w3.org/2000/svg" xmlns:xlink="http://www.w3.org/1999/xlink" x="0px" y="0px"
	 viewBox="0 0 300 300" style="enable-background:new 0 0 300 300;" xml:space="preserve">
<style type="text/css">
	.st0{fill:#EC2F35;}
</style>
<g>
	<path class="st0" d="M105.7,219.5v-3.9H57.4v-18.9h48.2v-3.9H57.5c0.3-3.7,1.2-8.9,4-11.4c8.4-7.5,35.6-29.6,45.6-37.7
		c0.2-0.2,0.4-0.3,0.6-0.5v-5.1V99.4c0-3.8-1-7.4-2.9-10.5l-6.5-11c-0.7-1.1-1.8-1.8-3-1.8c0,0,0,0,0,0c-1.2,0-2.4,0.7-3,1.8
		l-6.5,11c-1.9,3.1-2.9,6.8-2.9,10.5v58.9c-9.7,7.9-19.4,16-23.9,20.1c-4,3.6-5,10.3-5.3,14.3h0v1.1c0,1.2,0,2,0,2.2v23.5H105.7z
		 M86.7,99.4c0-3.1,0.8-6,2.3-8.5l6.2-10.5l6.2,10.5c1.5,2.5,2.3,5.5,2.3,8.5v41.9c-4.1,3.3-10.3,8.4-17,13.9V99.4z"/>
	<path class="st0" d="M131.9,277.1c0,6.7-5.4,12.1-12.1,12.1c-6.7,0-12.1-5.4-12.1-12.1v-7.9h-3.9v7.9c0,8.8,7.2,16,16,16
		s16.1-7.2,16.1-16v-31.4h-3.9V277.1z"/>
	<path class="st0" d="M247.5,193.8v-1.1h0c-0.2-4-1.3-10.7-5.3-14.3c-4.6-4.1-14.4-12-24-19.7h0.1V99.4c0-3.8-1-7.4-2.9-10.5
		l-6.5-11c-1.3-2.2-4.8-2.2-6.1,0l-6.5,11c-1.9,3.1-2.9,6.8-2.9,10.5v39.9v5c0.1,0.1,0.3,0.2,0.4,0.3c9.4,7.3,37.2,29,45.8,36.7
		c2.8,2.5,3.7,7.7,4,11.4h-48.2v3.9h48.2v18.9h-48.2v3.9h52.2v-23.6C247.5,195.7,247.5,194.9,247.5,193.8z M197.3,99.4
		c0-3.1,0.8-6,2.3-8.5l6.2-10.5l6.2,10.5c1.5,2.5,2.3,5.5,2.3,8.5v56.3c-6.7-5.3-13-10.2-17-13.3V99.4z"/>
	<path class="st0" d="M193.3,277.1c0,6.7-5.4,12.1-12.1,12.1s-12.1-5.4-12.1-12.1v-31.4h-3.9v31.4c0,8.8,7.2,16,16,16
		c8.9,0,16.1-7.2,16.1-16v-8.6h-3.9V277.1z"/>
	<path class="st0" d="M125,238.6h51.8V219h10.7V59.8c0-8.7-3.1-17.2-8.9-24.4L157.4,9c-1.5-1.9-3.8-3-6.2-3c0,0,0,0,0,0
		c-2.4,0-4.7,1.1-6.2,3l-21.2,26.5c-5.8,7.2-8.9,15.7-8.9,24.4V219H125V238.6z M172.8,234.7h-43.9V219h43.9V234.7z M118.8,215.1
		V59.8c0-7.8,2.8-15.4,8-21.9l21.2-26.5c0.8-1,1.9-1.5,3.1-1.5h0c1.2,0,2.4,0.5,3.1,1.5l21.2,26.5c5.2,6.5,8,14.1,8,21.9v155.3h-6.8
		H125H118.8z"/>
	<path class="st0" d="M152.5,44c-12.3,0-22.3,10-22.3,22.3s10,22.3,22.3,22.3c12.3,0,22.3-10,22.3-22.3S164.8,44,152.5,44z
		 M152.5,84.6c-10.1,0-18.3-8.2-18.3-18.3s8.2-18.3,18.3-18.3c10.1,0,18.3,8.2,18.3,18.3S162.6,84.6,152.5,84.6z"/>
	<rect x="168.1" y="172" class="st0" width="3.9" height="30.1"/>
	<rect x="148.6" y="245.8" class="st0" width="3.9" height="26.3"/>
</g>
</svg>
