<?xml version="1.0" encoding="utf-8"?>
<!-- Generator: Adobe Illustrator 22.0.1, SVG Export Plug-In . SVG Version: 6.00 Build 0)  -->
<svg version="1.1" id="Layer_1" xmlns="http://www.w3.org/2000/svg" xmlns:xlink="http://www.w3.org/1999/xlink" x="0px" y="0px"
	 viewBox="0 0 300 300" style="enable-background:new 0 0 300 300;" xml:space="preserve">
<style type="text/css">
	.st0{fill:#EC2F35;}
</style>
<g>
	<path class="st0" d="M238.9,25.2v200.9v4.3v22.1l25.5,38.3l25.5-38.3v-22.1v-4.3V25.2H238.9z M285.7,29.6v41.5h-42.4V29.6H285.7z
		 M285.7,251.3l-21.2,31.8l-21.2-31.8v-20.8h42.4V251.3z M243.3,226.2V75.4h42.4v150.7H243.3z"/>
	<path class="st0" d="M170.2,10h-4.3v15.2h-33.7V10h-4.3v15.2H91.8V10h-4.3v15.2H53.7V10h-4.3v15.2H9.8v264h198.8v-264h-38.3V10z
		 M204.2,29.6v255.3H14.1V29.6h35.3v18.7h4.3V29.6h33.7v18.7h4.3V29.6h36.1v18.7h4.3V29.6h33.7v18.7h4.3V29.6H204.2z"/>
	<rect x="112.9" y="115.6" class="st0" width="55.1" height="4.3"/>
	<rect x="114.6" y="164.8" class="st0" width="53.5" height="4.3"/>
	<rect x="114.6" y="213.9" class="st0" width="53.5" height="4.3"/>
	<polygon class="st0" points="65.6,119.8 55.9,111.8 53.2,115.1 65.8,125.6 85.9,107.2 83,104 	"/>
	<polygon class="st0" points="65.6,169.8 55.9,161.8 53.2,165.1 65.8,175.5 85.9,157.2 83,153.9 	"/>
	<polygon class="st0" points="65.6,217.8 55.9,209.8 53.2,213.2 65.8,223.6 85.9,205.2 83,202 	"/>
</g>
</svg>
