<?xml version="1.0" encoding="utf-8"?>
<!-- Generator: Adobe Illustrator 22.0.1, SVG Export Plug-In . SVG Version: 6.00 Build 0)  -->
<svg version="1.1" id="Layer_1" xmlns="http://www.w3.org/2000/svg" xmlns:xlink="http://www.w3.org/1999/xlink" x="0px" y="0px"
	 viewBox="0 0 300 300" style="enable-background:new 0 0 300 300;" xml:space="preserve">
<style type="text/css">
	.st0{fill:#EC2F35;}
</style>
<g>
	<path class="st0" d="M254.4,199c-5.5-7.3-21-22.7-64.1-44.2c-1.8-0.9-3-2.8-3-4.8v-37c6.1-7.5,9.9-17,9.9-27.4V51.4
		c0-23.9-19.4-43.3-43.3-43.3h-7.1c-23.9,0-43.3,19.4-43.3,43.3v34.2c0,10.6,3.9,20.2,10.2,27.7v36.6c0,2-1.2,3.9-3,4.8
		c-43.1,21.5-58.7,36.9-64.1,44.2c-2.2,3-3.4,6.6-3.4,10.4v32.1h33.8v-3.9H47v-28.2c0-2.9,0.9-5.7,2.6-8c5.2-7,20.4-21.9,62.7-43
		c3.2-1.6,5.2-4.9,5.2-8.4v-32.4v-4.7v-0.8c-6.3-7-10.2-16.2-10.2-26.3V51.4c0-21.7,17.7-39.4,39.4-39.4h7.1
		c21.7,0,39.4,17.7,39.4,39.4v34.2c0,10-3.7,19-9.9,26v1.2v4.5v32.7c0,3.5,2,6.8,5.2,8.4c42.4,21.1,57.5,36,62.7,43
		c1.7,2.3,2.6,5.1,2.6,8v28.2h-29.9v3.9h33.8v-32.1C257.8,205.5,256.7,201.9,254.4,199z"/>
	<path class="st0" d="M204,186H101c-6.4,0-11.6,5.2-11.6,11.6v70.2c0,6.4,5.2,11.6,11.6,11.6h103c6.4,0,11.6-5.2,11.6-11.6v-70.2
		C215.6,191.2,210.4,186,204,186z M211.7,267.9c0,4.3-3.5,7.7-7.7,7.7H101c-4.3,0-7.7-3.5-7.7-7.7v-70.2c0-4.3,3.5-7.7,7.7-7.7h103
		c4.3,0,7.7,3.5,7.7,7.7V267.9z"/>
	<polygon class="st0" points="140.8,245.9 130.4,235.8 127.6,238.6 140.8,251.5 173.4,218.6 170.6,215.8 	"/>
	<rect x="91.3" y="287.6" class="st0" width="122.4" height="3.9"/>
</g>
</svg>
