<?xml version="1.0" encoding="utf-8"?>
<!-- Generator: Adobe Illustrator 22.0.1, SVG Export Plug-In . SVG Version: 6.00 Build 0)  -->
<svg version="1.1" id="Layer_1" xmlns="http://www.w3.org/2000/svg" xmlns:xlink="http://www.w3.org/1999/xlink" x="0px" y="0px"
	 viewBox="0 0 300 300" style="enable-background:new 0 0 300 300;" xml:space="preserve">
<style type="text/css">
	.st0{fill:#EC2F35;}
</style>
<g>
	<path class="st0" d="M248.9,137.5v-37h-26.7V83.7L158.9,22H57.2V70H21.8v208.6h39.8h169.9l47.2-141.1H248.9z M244.6,104.8v32.7
		h-22.3v-32.7H244.6z M214.7,82.5h-56.2V27.8L214.7,82.5z M61.5,26.4h92.6v60.5h63.7v13.6v37H71.5l-10,24.1V70V26.4z M26.1,74.3
		h31.1v94.8v3L26.1,247V74.3z M228.3,274.2H61.5h-4.4H26.1v-15.9l31.1-74.9l4.4-10.5l1.6-3.9l1.8-4.4l9.5-22.9h143.5h4.4h22.3h4.4
		h23.7L228.3,274.2z"/>
	<rect x="87.7" y="57.4" class="st0" width="44.1" height="4.4"/>
	<rect x="87.7" y="87.4" class="st0" width="44.1" height="4.4"/>
	<rect x="87.7" y="117.4" class="st0" width="104.1" height="4.4"/>
</g>
</svg>
