<svg xmlns="http://www.w3.org/2000/svg" width="72.845" height="54.261" viewBox="0 0 72.845 54.261">
  <g id="Group_24" data-name="Group 24" transform="translate(-1971.594 399.203)">
    <path id="Path_28" data-name="Path 28" d="M2071.138-261.849a3.407,3.407,0,0,0-2.745-3.243l-.383-.089v-4.739l.7.326a2.308,2.308,0,0,1,1.411,2.068.507.507,0,0,0,.507.507.507.507,0,0,0,.507-.507,3.407,3.407,0,0,0-2.745-3.244l-.383-.089v-.687a.507.507,0,0,0-.507-.507.507.507,0,0,0-.507.507v.687l-.383.089a3.407,3.407,0,0,0-2.745,3.244,3.407,3.407,0,0,0,2.745,3.244l.383.089v4.739l-.7-.326a2.308,2.308,0,0,1-1.411-2.069.507.507,0,0,0-.507-.507.507.507,0,0,0-.507.507,3.407,3.407,0,0,0,2.745,3.244l.383.089v.8a.507.507,0,0,0,.507.507.507.507,0,0,0,.507-.507v-.8l.383-.089A3.407,3.407,0,0,0,2071.138-261.849ZM2067-265.131l-.7-.326a2.308,2.308,0,0,1-1.411-2.068,2.309,2.309,0,0,1,1.411-2.069l.7-.326Zm1.717,5.351-.7.326v-4.789l.7.326a2.308,2.308,0,0,1,1.411,2.068A2.307,2.307,0,0,1,2068.713-259.78Z" transform="translate(-71.862 -99.022)"/>
    <path id="Path_29" data-name="Path 29" d="M2015.341-323.923a11.257,11.257,0,0,1-.837-4.2,49.686,49.686,0,0,0-1.807-10.132,24.383,24.383,0,0,0-6.557-10.356,32.866,32.866,0,0,0-3.871-3.247l-.394-.28,4.478-6.632a.506.506,0,0,0,.028-.521.506.506,0,0,0-.448-.269,4.53,4.53,0,0,0-2.892,1.1,3.487,3.487,0,0,1-2.251.9,3.81,3.81,0,0,1-2.36-.929,4.543,4.543,0,0,0-2.782-1.071,4.672,4.672,0,0,0-2.825,1.081,3.827,3.827,0,0,1-2.315.919,3.83,3.83,0,0,1-2.316-.918,4.671,4.671,0,0,0-2.825-1.081.507.507,0,0,0-.448.269.507.507,0,0,0,.028.521l4.478,6.631-.394.28a32.886,32.886,0,0,0-3.871,3.247,24.384,24.384,0,0,0-6.557,10.356,49.71,49.71,0,0,0-1.807,10.132,11.263,11.263,0,0,1-.837,4.2,24.5,24.5,0,0,1-1.691,2.613c-1.707,2.431-3.641,5.185-2.121,6.705a2.1,2.1,0,0,0,2.345.341,14.623,14.623,0,0,0,2.542-1.317c1.411-.842,3.009-1.8,4.385-1.8a20.784,20.784,0,0,1,5.486,1.361c2.737.91,5.838,1.941,8.737,1.945h.017c2.9,0,6-1.035,8.74-1.945a20.793,20.793,0,0,1,5.487-1.361c1.376,0,2.974.954,4.385,1.8a14.641,14.641,0,0,0,2.542,1.317,2.1,2.1,0,0,0,2.345-.341c1.52-1.52-.415-4.274-2.121-6.7l.4-.285h0l-.405.284A24.505,24.505,0,0,1,2015.341-323.923Zm-28.778-34.263,1.847,1.057a4.078,4.078,0,0,0,2.1.58,4.769,4.769,0,0,0,2.894-1.1,3.739,3.739,0,0,1,2.247-.9,3.564,3.564,0,0,1,2.2.886,4.756,4.756,0,0,0,2.944,1.114,3.948,3.948,0,0,0,2.093-.58l1.9-1.124L2000.9-352.5l-5.254,0-5.24,0Zm31.749,40.818c.46,1,.5,1.67.125,2.047a.83.83,0,0,1-.618.24,7.764,7.764,0,0,1-3.033-1.369c-1.523-.909-3.249-1.939-4.9-1.939a20.89,20.89,0,0,0-5.807,1.413c-2.668.887-5.689,1.891-8.426,1.893s-5.76-1.006-8.425-1.893a20.894,20.894,0,0,0-5.808-1.413c-1.655,0-3.381,1.03-4.9,1.938-1.863,1.112-3.039,1.743-3.651,1.13-.377-.377-.336-1.046.125-2.047a24.02,24.02,0,0,1,2.109-3.358,25.072,25.072,0,0,0,1.765-2.736,12.08,12.08,0,0,0,.943-4.573,48.812,48.812,0,0,1,1.773-9.946c2.1-7.432,9.181-12.485,10.58-13.423l.125-.084h10.737l.125.084c1.4.938,8.481,5.992,10.58,13.423a48.776,48.776,0,0,1,1.773,9.945,12.085,12.085,0,0,0,.944,4.574,25.073,25.073,0,0,0,1.764,2.736A24.04,24.04,0,0,1,2018.312-317.368Z" transform="translate(0 -30.871)"/>
    <path id="Path_30" data-name="Path 30" d="M2164.423-372.636a23.938,23.938,0,0,0-4.906-17.235l-.291-.375,2.727-2.3a.529.529,0,0,0,.063-.745.529.529,0,0,0-.744-.063l-2.727,2.3-.321-.35a23.938,23.938,0,0,0-16.16-7.746,23.933,23.933,0,0,0-16.233,4.929,10.006,10.006,0,0,1,6.691,3.531,10.038,10.038,0,0,1,1.906,9.529,10.036,10.036,0,0,1,8.334,2.7l.4.381-10.739,9.056a7.314,7.314,0,0,1,.2,1.215l11.223-9.464.308.456a10.034,10.034,0,0,1,1.256,8.67,10.123,10.123,0,0,1,1.384-.1,10.037,10.037,0,0,1,7.687,3.582,10,10,0,0,1,2.35,7.189A23.934,23.934,0,0,0,2164.423-372.636Zm-9.14,7.3a11.107,11.107,0,0,0-5.062-3.409,11.24,11.24,0,0,0-2.908-.533l-.532-.026.065-.529a11.189,11.189,0,0,0-.034-2.956,11.109,11.109,0,0,0-2.506-5.564,11.1,11.1,0,0,0-5.061-3.408,11.183,11.183,0,0,0-2.908-.533l-.532-.025.064-.529a11.242,11.242,0,0,0-.035-2.957,11.1,11.1,0,0,0-2.506-5.564,11.027,11.027,0,0,0-3.981-2.995l-.905-.4.865-.482a22.827,22.827,0,0,1,4.363-1.866,22.914,22.914,0,0,1,8.769-.945,22.922,22.922,0,0,1,8.484,2.411,22.87,22.87,0,0,1,7.154,5.68,22.871,22.871,0,0,1,4.392,8.011,22.918,22.918,0,0,1,.944,8.77,22.943,22.943,0,0,1-2.41,8.484h0a22.924,22.924,0,0,1-2.576,3.984l-.622.771-.244-.96A11.029,11.029,0,0,0,2155.282-365.339Z" transform="translate(-120.116 0)"/>
  </g>
</svg>
