<svg xmlns="http://www.w3.org/2000/svg" width="53.279" height="54.261" viewBox="0 0 53.279 54.261">
  <g id="Group_25" data-name="Group 25" transform="translate(-2387.696 417.402)">
    <path id="Path_31" data-name="Path 31" d="M2563.969-170.979a3.956,3.956,0,0,0-3.94,4.054,4.052,4.052,0,0,0,3.94,4.054,4.052,4.052,0,0,0,3.94-4.054A4.052,4.052,0,0,0,2563.969-170.979Zm0,7.094a2.959,2.959,0,0,1-2.927-3.052,3.032,3.032,0,0,1,2.927-3.052,3.031,3.031,0,0,1,2.927,3.052A3.031,3.031,0,0,1,2563.969-163.885Z" transform="translate(-140.056 -200.27)"/>
    <path id="Path_32" data-name="Path 32" d="M2429.364-170.979a3.956,3.956,0,0,0-3.94,4.054,4.052,4.052,0,0,0,3.94,4.054,3.956,3.956,0,0,0,3.94-4.054A4.052,4.052,0,0,0,2429.364-170.979Zm0,7.094a2.959,2.959,0,0,1-2.927-3.052,3.031,3.031,0,0,1,2.927-3.052,2.96,2.96,0,0,1,2.927,3.052A3.031,3.031,0,0,1,2429.364-163.885Z" transform="translate(-30.661 -200.27)"/>
    <path id="Path_33" data-name="Path 33" d="M2440.975-416.4v-1h-5.41l-1.839,7.219H2387.7l8.528,25.268-.806.118a5.187,5.187,0,0,0-4.436,5.3,5.3,5.3,0,0,0,5.234,5.473h31.512v-.889h-31.512a4.31,4.31,0,0,1-4.232-4.471,4.361,4.361,0,0,1,4.232-4.471H2428l8.4-32.544Zm-13.7,31.541h-30.008l-8.152-24.322h44.3Z" transform="translate(0 0)"/>
    <rect id="Rectangle_7" data-name="Rectangle 7" width="1.013" height="12.013" transform="translate(2402.458 -402.26)"/>
    <rect id="Rectangle_8" data-name="Rectangle 8" width="1.013" height="12.013" transform="translate(2410.869 -402.26)"/>
    <rect id="Rectangle_9" data-name="Rectangle 9" width="1.013" height="12.013" transform="translate(2419.269 -402.26)"/>
  </g>
</svg>
