<svg xmlns="http://www.w3.org/2000/svg" width="66.068" height="47.718" viewBox="0 0 66.068 47.718">
  <g id="Group_26" data-name="Group 26" transform="translate(-2700 390.191)">
    <path id="Path_34" data-name="Path 34" d="M2730.611-348.671a.437.437,0,0,0,.417.048,35.987,35.987,0,0,1,13.759-2.913,33.19,33.19,0,0,1,13.315,2.888l.244.059.074-.019.127-.04a33.169,33.169,0,0,1,13.312-2.888,35.5,35.5,0,0,1,13.761,2.914h0a.437.437,0,0,0,.414-.048.51.51,0,0,0,.21-.419v-37.8a.5.5,0,0,0-.28-.458,30.894,30.894,0,0,0-13.11-2.845,42.464,42.464,0,0,0-14.346,2.714l-.187.067-.187-.067a42.485,42.485,0,0,0-14.349-2.715,30.871,30.871,0,0,0-13.107,2.845.5.5,0,0,0-.28.458v37.8A.507.507,0,0,0,2730.611-348.671Zm27.252-1.16-.752-.294a33.71,33.71,0,0,0-12.324-2.373,36.23,36.23,0,0,0-12.718,2.4l-.744.279V-386.56l.33-.144a30.139,30.139,0,0,1,12.152-2.488,41.317,41.317,0,0,1,13.688,2.532l.368.13Zm14.979-39.362a30.137,30.137,0,0,1,12.152,2.489l.33.144v36.744l-.744-.279a36.241,36.241,0,0,0-12.719-2.4,33.706,33.706,0,0,0-12.324,2.373l-.751.294v-36.7l.368-.13A41.309,41.309,0,0,1,2772.842-389.193Z" transform="translate(-25.144)"/>
    <path id="Path_35" data-name="Path 35" d="M2765.575-367.056a.493.493,0,0,0-.493.493v40.184l-26.215,0-.075.008c-.02,0-.042.009-.066.012l-.09.013-.089-.017a.484.484,0,0,0-.393.085,8.065,8.065,0,0,1-5,1.925,9.007,9.007,0,0,1-5.177-1.883l-.061-.035a.738.738,0,0,1-.066-.033.618.618,0,0,0-.062-.032l-.055-.018a.539.539,0,0,0-.069-.011.7.7,0,0,1-.073-.011l-.035-.007h-26.567v-40.184a.493.493,0,0,0-.493-.493.493.493,0,0,0-.493.493v40.676a.493.493,0,0,0,.493.493h26.97l.142.1a9.871,9.871,0,0,0,5.554,1.957,8.873,8.873,0,0,0,5.308-1.945l.148-.11h26.96a.493.493,0,0,0,.493-.493v-40.676A.493.493,0,0,0,2765.575-367.056Z" transform="translate(0 -19.134)"/>
  </g>
</svg>
