<svg xmlns="http://www.w3.org/2000/svg" width="51.456" height="57.426" viewBox="0 0 51.456 57.426">
  <path id="Path_39" data-name="Path 39" d="M4079.249-410.105a25.6,25.6,0,0,0-17.491-7.865l-.432-.017v-2.553a.6.6,0,0,0-.6-.6.6.6,0,0,0-.6.6v2.553l-.432.017a25.605,25.605,0,0,0-17.491,7.865A25.59,25.59,0,0,0,4035-392.334l0,.038c0,.014,0,.029.008.068a.7.7,0,0,0,.021.085l.032.128.142.194.044.023.043.025.023.015a.67.67,0,0,0,.067.04l.058.029.049,0,.028,0a.563.563,0,0,1,.057.009l.052.011.221-.059.124-.091c.016-.011.031-.022.046-.034l.02-.019c.013-.013.025-.025.036-.034l.025-.025a7.54,7.54,0,0,1,5.78-2.874c3.3,0,6.017,3.06,6.017,3.06l.043.025a.439.439,0,0,0,.354.077c.122-.019.371-.29.371-.29a7.562,7.562,0,0,1,5.781-2.872,7.5,7.5,0,0,1,5.57,2.648l.115.128v23.54a3.6,3.6,0,0,1-3.591,3.591,3.6,3.6,0,0,1-3.592-3.591.6.6,0,0,0-.6-.6.6.6,0,0,0-.6.6,4.791,4.791,0,0,0,4.785,4.785,4.791,4.791,0,0,0,4.785-4.785v-23.54l.115-.128a7.5,7.5,0,0,1,5.571-2.648,7.542,7.542,0,0,1,5.772,2.865l.036.035a.51.51,0,0,1,.059.052l.029.031,0,.008.145.082.025.014.083.024.072.009.045.007.046.009.078-.018a.572.572,0,0,0,.146-.043c.016-.009.034-.02.063-.04l.083-.064a.719.719,0,0,1,.073-.065l.034-.033a7.541,7.541,0,0,1,5.779-2.872,7.542,7.542,0,0,1,5.776,2.87l.025.026a.545.545,0,0,1,.043.041.6.6,0,0,0,.153.114.558.558,0,0,1,.049.032l.061.031a.52.52,0,0,0,.351,0l.049-.023.061-.037.05-.027.037-.023.163-.21.038-.148c.006-.02.011-.041.015-.061l.01-.132A25.59,25.59,0,0,0,4079.249-410.105Zm5.984,16.276-.812-.579a8.324,8.324,0,0,0-4.843-1.6,8.474,8.474,0,0,0-5.969,2.526l-.313.3-.314-.3a8.473,8.473,0,0,0-5.969-2.526,8.474,8.474,0,0,0-5.969,2.526l-.314.3-.314-.3a8.473,8.473,0,0,0-5.969-2.526,8.474,8.474,0,0,0-5.969,2.526l-.314.3-.314-.3a8.473,8.473,0,0,0-5.969-2.526,8.324,8.324,0,0,0-4.843,1.6l-.812.579.1-.992a24.489,24.489,0,0,1,7.932-15.615,24.464,24.464,0,0,1,16.469-6.365,24.464,24.464,0,0,1,16.469,6.365,24.488,24.488,0,0,1,7.931,15.615Z" transform="translate(-4035 421.137)"/>
</svg>
