<svg xmlns="http://www.w3.org/2000/svg" width="62.559" height="59.895" viewBox="0 0 62.559 59.895">
  <path id="Path_40" data-name="Path 40" d="M4393.337-367a.6.6,0,0,0,.6-.6v-.015c.127-4.985-2.972-9.191-9.209-12.5a49.906,49.906,0,0,0-13.063-4.427l-.489-.095v-1.9l.224-.181a10.808,10.808,0,0,0,.848-.768,15.8,15.8,0,0,0,4.013-8.849l.053-.458.455-.069a7.468,7.468,0,0,0,4.842-2.874c1.639-2.325,1.76-5.674.36-9.955a.6.6,0,0,0-.241-.311l-.943-.635.008-.331a15.738,15.738,0,0,0-3.766-10.612c-3.108-3.5-7.947-5.292-14.375-5.315-6.387,0-11.225,1.774-14.376,5.273a15.74,15.74,0,0,0-3.761,10.606l.008.331-.938.631a.609.609,0,0,0-.247.317c-1.394,4.286-1.273,7.636.362,9.953a7.491,7.491,0,0,0,4.844,2.909l.453.071.053.455a15.814,15.814,0,0,0,4.025,8.862,11.192,11.192,0,0,0,.849.769l.222.181v1.895l-.489.095a49.9,49.9,0,0,0-13.063,4.427c-6.238,3.31-9.336,7.516-9.209,12.5v.015a.6.6,0,0,0,.6.6Zm-21.432-16.268c4.611.958,19.737,4.825,20.776,14.356l.073.669h-29.492v-7.708l.562-.038c4.262-.292,7.355-2.216,7.355-4.575v-2.854Zm-9.246,6.118c-4.31,0-7.313-1.794-7.313-3.4v-5.109l.857.4a14.108,14.108,0,0,0,6.144,1.3h.615a14.071,14.071,0,0,0,6.154-1.3l.857-.4v5.109C4369.972-378.947,4366.969-377.153,4362.659-377.153ZM4347.538-398.4a5.813,5.813,0,0,1-2.853-2.086l-.918-1.254.35.07c-.713-1.855-.615-4.3.3-7.29l.062-.205,1.059-.711a.6.6,0,0,0,.267-.562l0-.025a14.821,14.821,0,0,1,3.421-10.353l.011-.013c2.827-3.2,7.343-4.837,13.424-4.862h.134c5.955,0,10.441,1.635,13.339,4.859l.015.017a14.821,14.821,0,0,1,3.421,10.353l0,.025a.6.6,0,0,0,.265.561l1.061.712.063.2c1.135,3.711,1.025,6.563-.325,8.477a5.845,5.845,0,0,1-2.873,2.1l-2.119.708,1.475-1.678a7.466,7.466,0,0,0,1.821-5.557,5.051,5.051,0,0,0-1.731-3l-.2-.171-.011-.266v-.02l-1.763.1a25.341,25.341,0,0,1-14.772-3.708l-.031-.021a.607.607,0,0,0-.784.079c-1.08,1.161-3.735,3.167-9.343,3.518l-.692.043.053-.692c.307-4.019,1.626-6.986,3.921-8.82a10.665,10.665,0,0,1,6.842-2.128,12.459,12.459,0,0,1,2.166.178l.018,0a.6.6,0,0,0,.241,0l.019,0a12.429,12.429,0,0,1,2.17-.178,10.512,10.512,0,0,1,6.816,2.164c2.2,1.79,3.5,4.631,3.846,8.447l1.245.246c-.342-4.171-2.274-12.052-11.971-12.052h-.041a14.662,14.662,0,0,0-2.174.162l-.09.013-.09-.013a15.016,15.016,0,0,0-2.214-.162,12.675,12.675,0,0,0-7.117,2.066c-3.024,2.116-4.674,5.742-4.906,10.778l-.012.268-.207.17a5.049,5.049,0,0,0-1.752,2.983,7.452,7.452,0,0,0,1.822,5.555l1.483,1.685Zm6.449,10.11c-3.851-3.838-3.92-9.787-3.916-10.453l0-.231a.618.618,0,0,0-.1-.166c-1.795-2.057-2.586-3.917-2.354-5.53a3.783,3.783,0,0,1,1.3-2.412l.169-.145h.223c1.113,0,6.85-.158,10.467-3.281l.324-.28.371.213a26.655,26.655,0,0,0,13.1,3.54,15.473,15.473,0,0,0,2.39-.126l.274-.042.21.18a3.786,3.786,0,0,1,1.292,2.354c.232,1.584-.581,3.5-2.351,5.525a.6.6,0,0,0-.153.407v.994l-7.726,4.142-.316-.3a2.847,2.847,0,0,0-2.053-.785,2.855,2.855,0,0,0-2.008.9,2.855,2.855,0,0,0-.785,2.053,2.854,2.854,0,0,0,.9,2.007,2.85,2.85,0,0,0,2.053.785,2.852,2.852,0,0,0,2.007-.9,2.864,2.864,0,0,0,.787-1.976v-.03c0-.088,0-.177,0-.265l-.02-.382,7-3.754-.251,1.254a13.873,13.873,0,0,1-3.381,6.662l-.026.027a11.4,11.4,0,0,1-7.883,3.175c-.184,0-.368,0-.552-.013h-.573A11.426,11.426,0,0,1,4353.987-388.291Zm12.9-3.525a1.679,1.679,0,0,1-1.678,1.677,1.679,1.679,0,0,1-1.677-1.677,1.679,1.679,0,0,1,1.677-1.677A1.679,1.679,0,0,1,4366.883-391.816Zm-34.247,22.867c.43-4.094,3.495-7.6,9.107-10.424a50.708,50.708,0,0,1,11.667-3.934l.729-.155v2.905c0,2.363,3.026,4.245,7.359,4.575l.558.043v7.655h-29.49Z" transform="translate(-4331.386 426.899)"/>
</svg>
