<svg xmlns="http://www.w3.org/2000/svg" width="57.05" height="55.132" viewBox="0 0 57.05 55.132">
  <path id="Path_41" data-name="Path 41" d="M2834.353,1414.239a.485.485,0,0,0,.092-.57l-.023-.045-.02-.06a9.588,9.588,0,0,0-9.122-6.778h-.017a9.526,9.526,0,0,0-3.76.771l-.388.166L2810.395,1397l.049-.049,13.823-13.718,3.385-.1a.481.481,0,0,0,.4-.238l4.492-7.553a.486.486,0,0,0-.072-.594l-3.881-3.881a.484.484,0,0,0-.592-.072l-7.553,4.492a.484.484,0,0,0-.239.4l-.1,3.374-.176.176-13.66,13.637-9.74-9.741.055-.318a9.523,9.523,0,0,0-14.665-9.544.485.485,0,0,0,.038.823l5.032,2.8c1.423.811,1.73,3.084.673,4.965s-3.163,2.824-4.583,2.036l-4.663-2.526a.485.485,0,0,0-.373-.043.485.485,0,0,0-.349.5A9.523,9.523,0,0,0,2790.95,1390l.388-.166,8.99,8.99-4.45,4.45-1.251-1.234a1.673,1.673,0,0,0-1.162-.466,1.69,1.69,0,0,0-1.173.472l-1.1,1.1a1.6,1.6,0,0,0-.094,2.2l.385.44-.046.046-13.487,13.464a1.6,1.6,0,0,0-.5,1.126,1.582,1.582,0,0,0,.442,1.137l.049.049,3.759,3.759a1.6,1.6,0,0,0,1.126.5,1.573,1.573,0,0,0,1.137-.442l.049-.049,13.553-13.542.439.384a1.594,1.594,0,0,0,2.192-.088l1.115-1.115a1.6,1.6,0,0,0,.059-2.264l-.048-.048-.011-.01-1.247-1.247,4.421-4.518,11.43,11.43-.053.317a9.523,9.523,0,0,0,16.184,8.254.486.486,0,0,0-.049-.674.491.491,0,0,0-.171-.1l-6.254-1.678a2.692,2.692,0,0,1-1.706-1.655,4.958,4.958,0,0,1,1.375-5.414,2.737,2.737,0,0,1,2.444-.671l6.139,1.653a.505.505,0,0,0,.086,0l.042-.006h.054l.006.069v-.069A.483.483,0,0,0,2834.353,1414.239Zm-27.346-20.723,13.9-13.922h0a.484.484,0,0,0,.14-.329l.1-3.307.032-.02,6.967-4.14,3.344,3.344-4.075,6.988h-.038l-3.322.122a.485.485,0,0,0-.337.141l-13.969,13.958-2.789-2.789Zm-10.185,17.626-13.932,13.967-.049-.049-4.641-4.613.05-.049,14.021-13.986,2.348,2.348,2.251,2.334Zm4.241-1.321-1.948,1.988-.049-.05-7.521-7.571,1.992-1.993.049.049Zm-1.74-3.075-2.79-2.79,4.453-4.453,2.79,2.79Zm28.582,5.054a3.273,3.273,0,0,0-.825-.112,4.833,4.833,0,0,0-4.3,3.846l-.011.045a5.7,5.7,0,0,0,.189,3.649,3.627,3.627,0,0,0,2.376,2.182l5.54,1.489-1.267.755a8.533,8.533,0,0,1-4.364,1.2h0a8.6,8.6,0,0,1-7.36-4.173,8.512,8.512,0,0,1-.978-6.337.478.478,0,0,0-.132-.446l-24.99-25.012a.482.482,0,0,0-.565-.062l-.017.009a8.559,8.559,0,0,1-12.046-4.642l-.568-1.569,3.987,2.221a3.3,3.3,0,0,0,1.609.42,5.185,5.185,0,0,0,4.285-2.809l.011-.02c1.34-2.394.865-5.217-1.057-6.294l-4.415-2.5,1.283-.458a8.553,8.553,0,0,1,11.209,9.989.48.48,0,0,0,.132.448l25.052,25.042a.483.483,0,0,0,.568.088,8.562,8.562,0,0,1,11.373,3.22l.775,1.318Z" transform="translate(-2777.45 -1370.73)"/>
</svg>
