<?xml version="1.0" encoding="utf-8"?>
<!-- Generator: Adobe Illustrator 22.0.1, SVG Export Plug-In . SVG Version: 6.00 Build 0)  -->
<svg version="1.1" id="Layer_1" xmlns="http://www.w3.org/2000/svg" xmlns:xlink="http://www.w3.org/1999/xlink" x="0px" y="0px"
	 viewBox="0 0 258 583" style="enable-background:new 0 0 258 583;" xml:space="preserve">
<style type="text/css">
	.st0{fill:#EA151D;}
</style>
<g>
	<rect x="77.4" y="28.5" transform="matrix(0.6127 -0.7903 0.7903 0.6127 5.2843 74.7068)" class="st0" width="2.9" height="6.9"/>
	<rect x="84.7" y="34.3" transform="matrix(0.6352 -0.7724 0.7724 0.6352 2.2476 80.3503)" class="st0" width="2.9" height="6.9"/>
	<rect x="91.8" y="40.4" transform="matrix(0.6571 -0.7538 0.7538 0.6571 -1.0468 85.3597)" class="st0" width="2.9" height="6.9"/>
	<rect x="98.8" y="46.6" transform="matrix(0.6786 -0.7346 0.7346 0.6786 -4.5543 89.7618)" class="st0" width="2.9" height="6.9"/>
	
		<rect x="105.6" y="53.1" transform="matrix(0.6995 -0.7147 0.7147 0.6995 -8.2238 93.5081)" class="st0" width="2.9" height="6.9"/>
	
		<rect x="112.2" y="59.7" transform="matrix(0.7198 -0.6942 0.6942 0.7198 -12.0027 96.6059)" class="st0" width="2.9" height="6.9"/>
	<rect x="118.6" y="66.5" transform="matrix(0.7397 -0.673 0.673 0.7397 -15.8486 99.0175)" class="st0" width="2.9" height="6.9"/>
	
		<rect x="124.8" y="73.5" transform="matrix(0.7587 -0.6514 0.6514 0.7587 -19.6963 100.8181)" class="st0" width="2.9" height="6.9"/>
	<rect x="130.8" y="80.7" transform="matrix(0.7774 -0.629 0.629 0.7774 -23.5127 101.913)" class="st0" width="2.9" height="6.9"/>
	
		<rect x="136.6" y="88.1" transform="matrix(0.7952 -0.6063 0.6063 0.7952 -27.2343 102.4261)" class="st0" width="2.9" height="6.9"/>
	
		<rect x="142.1" y="95.6" transform="matrix(0.8127 -0.5827 0.5827 0.8127 -30.8232 102.2221)" class="st0" width="2.9" height="6.9"/>
	
		<rect x="147.5" y="103.3" transform="matrix(0.8294 -0.5586 0.5586 0.8294 -34.223 101.4072)" class="st0" width="2.9" height="6.9"/>
	
		<rect x="152.6" y="111.1" transform="matrix(0.8454 -0.5341 0.5341 0.8454 -37.3847 99.9905)" class="st0" width="2.9" height="6.9"/>
	
		<rect x="157.5" y="119.1" transform="matrix(0.8607 -0.5091 0.5091 0.8607 -40.2541 97.98)" class="st0" width="2.9" height="6.9"/>
	
		<rect x="162.1" y="127.2" transform="matrix(0.8754 -0.4835 0.4835 0.8754 -42.7905 95.3789)" class="st0" width="2.9" height="6.9"/>
	
		<rect x="166.5" y="135.5" transform="matrix(0.8893 -0.4573 0.4573 0.8893 -44.9476 92.2143)" class="st0" width="2.9" height="6.9"/>
	
		<rect x="170.7" y="143.8" transform="matrix(0.9026 -0.4306 0.4306 0.9026 -46.6576 88.4758)" class="st0" width="2.9" height="6.9"/>
	
		<rect x="174.6" y="152.3" transform="matrix(0.9148 -0.4039 0.4039 0.9148 -47.9335 84.3833)" class="st0" width="2.9" height="6.9"/>
	
		<rect x="178.2" y="161" transform="matrix(0.9266 -0.3762 0.3762 0.9266 -48.6539 79.6784)" class="st0" width="2.9" height="6.9"/>
	
		<rect x="181.6" y="169.7" transform="matrix(0.9372 -0.3487 0.3487 0.9372 -48.8863 74.7249)" class="st0" width="2.9" height="6.9"/>
	
		<rect x="184.8" y="178.5" transform="matrix(0.9472 -0.3206 0.3206 0.9472 -48.5153 69.3247)" class="st0" width="2.9" height="6.9"/>
	
		<rect x="187.6" y="187.4" transform="matrix(0.9564 -0.2922 0.2922 0.9564 -47.5132 63.5773)" class="st0" width="2.9" height="6.9"/>
	
		<rect x="190.3" y="196.4" transform="matrix(0.9647 -0.2632 0.2632 0.9647 -45.8425 57.4998)" class="st0" width="2.9" height="6.9"/>
	
		<rect x="192.6" y="205.4" transform="matrix(0.9722 -0.2343 0.2343 0.9722 -43.5554 51.2907)" class="st0" width="2.9" height="6.9"/>
	
		<rect x="194.6" y="214.6" transform="matrix(0.9787 -0.2052 0.2052 0.9787 -40.5799 44.8899)" class="st0" width="2.9" height="6.9"/>
	
		<rect x="196.4" y="223.8" transform="matrix(0.9844 -0.1759 0.1759 0.9844 -36.884 38.3483)" class="st0" width="2.9" height="6.9"/>
	
		<rect x="197.9" y="233" transform="matrix(0.9892 -0.1465 0.1465 0.9892 -32.4892 31.7586)" class="st0" width="2.9" height="6.9"/>
	
		<rect x="199.2" y="242.3" transform="matrix(0.9931 -0.117 0.117 0.9931 -27.3746 25.1616)" class="st0" width="2.9" height="6.9"/>
	
		<rect x="200.1" y="251.6" transform="matrix(0.9962 -8.727895e-02 8.727895e-02 0.9962 -21.4929 18.5685)" class="st0" width="2.9" height="6.9"/>
	
		<rect x="200.8" y="260.9" transform="matrix(0.9983 -5.784005e-02 5.784005e-02 0.9983 -14.9541 12.1424)" class="st0" width="2.9" height="7"/>
	
		<rect x="201.2" y="270.3" transform="matrix(0.9996 -2.842611e-02 2.842611e-02 0.9996 -7.6992 5.8721)" class="st0" width="2.9" height="6.9"/>
	
		<rect x="199.3" y="281.7" transform="matrix(1.638576e-02 -0.9999 0.9999 1.638576e-02 -83.5975 481.2854)" class="st0" width="6.9" height="2.9"/>
	
		<rect x="199.2" y="291" transform="matrix(3.009676e-02 -0.9995 0.9995 3.009676e-02 -95.7537 486.245)" class="st0" width="6.9" height="2.9"/>
	
		<rect x="198.8" y="300.3" transform="matrix(5.950589e-02 -0.9982 0.9982 5.950589e-02 -111.0324 485.741)" class="st0" width="6.9" height="2.9"/>
	
		<rect x="198.1" y="309.7" transform="matrix(8.893786e-02 -0.996 0.996 8.893786e-02 -126.2734 484.2469)" class="st0" width="6.9" height="2.9"/>
	
		<rect x="197.1" y="319" transform="matrix(0.1184 -0.993 0.993 0.1184 -141.3476 481.7253)" class="st0" width="6.9" height="2.9"/>
	
		<rect x="195.9" y="328.3" transform="matrix(0.1481 -0.989 0.989 0.1481 -156.2524 478.047)" class="st0" width="6.9" height="2.9"/>
	
		<rect x="194.4" y="337.5" transform="matrix(0.1772 -0.9842 0.9842 0.1772 -170.8098 473.6133)" class="st0" width="6.9" height="2.9"/>
	
		<rect x="192.6" y="346.7" transform="matrix(0.2069 -0.9784 0.9784 0.2069 -185.1208 467.9125)" class="st0" width="6.9" height="2.9"/>
	
		<rect x="190.5" y="355.8" transform="matrix(0.2361 -0.9717 0.9717 0.2361 -198.9651 461.4111)" class="st0" width="6.9" height="2.9"/>
	
		<rect x="188.2" y="364.9" transform="matrix(0.2648 -0.9643 0.9643 0.2648 -212.3572 454.1149)" class="st0" width="6.9" height="2.9"/>
	
		<rect x="185.6" y="373.9" transform="matrix(0.2936 -0.9559 0.9559 0.2936 -225.2528 445.8363)" class="st0" width="6.9" height="2.9"/>
	
		<rect x="182.7" y="382.8" transform="matrix(0.322 -0.9467 0.9467 0.322 -237.5385 436.7154)" class="st0" width="6.9" height="2.9"/>
	
		<rect x="179.5" y="391.6" transform="matrix(0.3501 -0.9367 0.9367 0.3501 -249.2323 426.8439)" class="st0" width="6.9" height="2.9"/>
	
		<rect x="176.1" y="400.3" transform="matrix(0.3781 -0.9258 0.9258 0.3781 -260.2316 416.1075)" class="st0" width="6.9" height="2.9"/>
	
		<rect x="172.5" y="408.9" transform="matrix(0.4055 -0.9141 0.9141 0.4055 -270.5129 404.7633)" class="st0" width="6.9" height="2.9"/>
	
		<rect x="168.6" y="417.4" transform="matrix(0.4323 -0.9017 0.9017 0.4323 -280.0241 392.9021)" class="st0" width="6.9" height="2.9"/>
	
		<rect x="164.4" y="425.8" transform="matrix(0.4588 -0.8885 0.8885 0.4588 -288.7827 380.3641)" class="st0" width="6.9" height="2.9"/>
	
		<rect x="160" y="434" transform="matrix(0.4849 -0.8746 0.8746 0.4849 -296.6638 367.2469)" class="st0" width="6.9" height="2.9"/>
	
		<rect x="155.3" y="442.1" transform="matrix(0.5105 -0.8599 0.8599 0.5105 -303.7102 353.683)" class="st0" width="6.9" height="2.9"/>
	
		<rect x="150.4" y="450.1" transform="matrix(0.5353 -0.8446 0.8446 0.5353 -309.9239 339.8239)" class="st0" width="6.9" height="2.9"/>
	
		<rect x="145.3" y="457.9" transform="matrix(0.56 -0.8285 0.8285 0.56 -315.1496 325.3979)" class="st0" width="6.9" height="2.9"/>
	
		<rect x="140" y="465.6" transform="matrix(0.584 -0.8117 0.8117 0.584 -319.4834 310.7098)" class="st0" width="6.9" height="2.9"/>
	
		<rect x="134.4" y="473.1" transform="matrix(0.6075 -0.7943 0.7943 0.6075 -322.8861 295.8074)" class="st0" width="6.9" height="2.9"/>
	
		<rect x="128.6" y="480.5" transform="matrix(0.6303 -0.7764 0.7764 0.6303 -325.3472 280.7335)" class="st0" width="6.9" height="2.9"/>
	
		<rect x="122.6" y="487.7" transform="matrix(0.6527 -0.7576 0.7576 0.6527 -326.7964 265.4147)" class="st0" width="6.9" height="2.9"/>
	
		<rect x="116.4" y="494.7" transform="matrix(0.6742 -0.7386 0.7386 0.6742 -327.3647 250.18)" class="st0" width="6.9" height="2.9"/>
	
		<rect x="110" y="501.5" transform="matrix(0.6954 -0.7186 0.7186 0.6954 -326.8897 234.7361)" class="st0" width="6.9" height="2.9"/>
	
		<rect x="103.4" y="508.1" transform="matrix(0.7158 -0.6983 0.6983 0.7158 -325.477 219.4239)" class="st0" width="6.9" height="2.9"/>
	
		<rect x="96.6" y="514.6" transform="matrix(0.7356 -0.6774 0.6774 0.7356 -323.1012 204.2337)" class="st0" width="6.9" height="2.9"/>
	
		<rect x="89.6" y="520.8" transform="matrix(0.7549 -0.6558 0.6558 0.7549 -319.6891 189.0468)" class="st0" width="6.9" height="2.9"/>
	
		<rect x="82.5" y="526.8" transform="matrix(0.7734 -0.6339 0.6339 0.7734 -315.4327 174.2211)" class="st0" width="6.9" height="2.9"/>
	
		<rect x="75.2" y="532.7" transform="matrix(0.7913 -0.6114 0.6114 0.7913 -310.171 159.5636)" class="st0" width="6.9" height="2.9"/>
	
		<rect x="67.7" y="538.3" transform="matrix(0.8086 -0.5883 0.5883 0.8086 -303.9316 145.1607)" class="st0" width="6.9" height="2.9"/>
	
		<rect x="60.1" y="543.7" transform="matrix(0.8251 -0.565 0.565 0.8251 -296.8918 131.2402)" class="st0" width="6.9" height="2.9"/>
	<polygon class="st0" points="57.9,547.2 57.6,547.4 59.5,533.4 56.3,533 53.9,549.7 53.7,551.7 53.7,551.8 55.7,552.1 72.5,554.4 
		73,551.2 59.2,549.3 	"/>
</g>
</svg>
