<svg xmlns="http://www.w3.org/2000/svg" width="52.116" height="56.872" viewBox="0 0 52.116 56.872">
  <g id="Group_30" data-name="Group 30" transform="translate(-3338.984 -790.141)">
    <path id="Path_51" data-name="Path 51" d="M3454.067,1097.508a.636.636,0,0,0-.635.635v12.893a.635.635,0,1,0,1.271,0v-12.893A.636.636,0,0,0,3454.067,1097.508Z" transform="translate(-99.83 -268.108)"/>
    <path id="Path_52" data-name="Path 52" d="M3396.014,1097.508a.636.636,0,0,0-.635.635v12.893a.635.635,0,1,0,1.271,0v-12.893A.636.636,0,0,0,3396.014,1097.508Z" transform="translate(-49.192 -268.108)"/>
    <path id="Path_53" data-name="Path 53" d="M3566.856,1097.508a.636.636,0,0,0-.636.635v12.893a.635.635,0,1,0,1.271,0v-12.893A.636.636,0,0,0,3566.856,1097.508Z" transform="translate(-198.213 -268.108)"/>
    <path id="Path_54" data-name="Path 54" d="M3623.251,1097.508a.636.636,0,0,0-.635.635v12.893a.635.635,0,1,0,1.271,0v-12.893A.636.636,0,0,0,3623.251,1097.508Z" transform="translate(-247.405 -268.108)"/>
    <path id="Path_55" data-name="Path 55" d="M3510.462,1097.508a.636.636,0,0,0-.636.635v12.893a.636.636,0,0,0,1.271,0v-12.893A.636.636,0,0,0,3510.462,1097.508Z" transform="translate(-149.022 -268.108)"/>
    <path id="Path_56" data-name="Path 56" d="M3681.3,1097.508a.636.636,0,0,0-.636.635v12.893a.635.635,0,1,0,1.271,0v-12.893A.636.636,0,0,0,3681.3,1097.508Z" transform="translate(-298.043 -268.108)"/>
    <path id="Path_57" data-name="Path 57" d="M3391.079,847.013a3.571,3.571,0,0,0,.021-.482v-20.1a.618.618,0,0,0-.625-.606h-.574L3365.677,810v-5.215l.555-.2a3.437,3.437,0,0,0,0-6.451l-.555-.2v-2.184h2.171a.636.636,0,0,0,0-1.271h-2.171v-3.7a.635.635,0,1,0-1.271,0v3.7h-2.167a.636.636,0,0,0,0,1.271h2.167v2.811a.636.636,0,0,0,.635.636,2.169,2.169,0,1,1-2.168,2.171.635.635,0,1,0-1.271,0,3.364,3.364,0,0,0,2.239,3.219l.565.2V810l-24.219,15.825h-.579a.626.626,0,0,0-.624.61v20.093a3.7,3.7,0,0,0,.02.483Zm-26.035-35.877.347.226,22.183,14.465h-45.06ZM3340.255,827.1h49.574v18.855h-49.574Z" transform="translate(0)"/>
  </g>
</svg>
